SplineFontDB: 3.0
FontName: HadasimCLM-RegularOblique
FullName: Hadasim CLM RegularOblique
FamilyName: Hadasim CLM
Weight: Regular
Copyright: Inspired by Henri Friedlander Hadasa font.\n\nCopyright 2010 by Yoram Gnat (yoram.gnat@gmail.com). Distributed under the terms of GNU GPL version2 (http://www.gnu.org/licenses/gpl.html).\n\nLatin and parts of general punctuation marks based on modified forms from the LiberationSerif font, created by Digitized data `2007 Ascender Corporation. All rights reserved. \n\nAs a special exception, if you create a document which uses this font, and embed this font or unaltered portions of this font into the document, this font does not by itself cause the resulting document to be covered by the GNU General Public License. This exception does not however invalidate any other reasons why the document might be covered by the GNU General Public License. If you modify this font, you may extend this exception to your version of the font, but you are not obligated to do so. If you do not wish to do so, delete this exception statement from your version.
Version: 0.110
ItalicAngle: 13
UnderlinePosition: -1228
UnderlineWidth: 184
Ascent: 1638
Descent: 410
LayerCount: 2
Layer: 0 0 "Back"  1
Layer: 1 0 "Fore"  0
NeedsXUIDChange: 1
UniqueID: 4247518
FSType: 0
OS2Version: 0
OS2_WeightWidthSlopeOnly: 0
OS2_UseTypoMetrics: 0
CreationTime: 1235598109
ModificationTime: 1286636165
PfmFamily: 17
TTFWeight: 400
TTFWidth: 5
LineGap: 184
VLineGap: 0
OS2TypoAscent: 0
OS2TypoAOffset: 1
OS2TypoDescent: 0
OS2TypoDOffset: 1
OS2TypoLinegap: 184
OS2WinAscent: 0
OS2WinAOffset: 1
OS2WinDescent: 50
OS2WinDOffset: 1
HheadAscent: 0
HheadAOffset: 1
HheadDescent: 0
HheadDOffset: 1
OS2Vendor: 'PfEd'
Lookup: 4 1 0 "'ccmp' YodHiriq bug in Hebrew Script"  {"'ccmp' YodHiriq in Hebrew Script"  } ['ccmp' ('hebr' <'dflt' > ) ]

StartChar: exclam
Encoding: 33 33 1
Width: 398
Flags: W
HStem: -28 218<108.12 252.266> 1210 20G<-186 13.4052>
VStem: 69 222<10.0103 151.99>
LayerCount: 2
Fore
SplineSet
155 190 m 0
 239 190 291 115 291 53 c 0
 291 9 265 -28 205 -28 c 0
 122 -28 69 47 69 109 c 0
 69 153 95 190 155 190 c 0
-186 1230 m 1
 10 1230 l 1
 160 349 l 1
 76 349 l 1
 -186 1230 l 1
EndSplineSet
EndChar

StartChar: quotedbl
Encoding: 34 34 2
Width: 676
Flags: W
HStem: 785 445<-91 -24 194 261>
VStem: -91 67<785 877.457> 194 67<785 877.457>
LayerCount: 2
Fore
SplineSet
125 1230 m 1
 302 1230 l 1
 261 785 l 1
 194 785 l 1
 125 1230 l 1
-160 1230 m 1
 17 1230 l 1
 -24 785 l 1
 -91 785 l 1
 -160 1230 l 1
EndSplineSet
EndChar

StartChar: numbersign
Encoding: 35 35 3
Width: 1042
Flags: W
HStem: 0 21G<191.924 304 549.924 659> 316 111<26 171 286 530 641 853> 684 112<-61 154 267 513 623 759>
LayerCount: 2
Fore
SplineSet
853 427 m 1
 853 320 l 1
 641 320 l 1
 659 0 l 1
 551 0 l 1
 534 316 l 1
 286 316 l 1
 304 0 l 1
 193 0 l 1
 176 316 l 1
 21 316 l 1
 26 427 l 1
 171 427 l 1
 157 684 l 1
 -68 684 l 1
 -61 796 l 1
 154 796 l 1
 137 1050 l 1
 247 1050 l 1
 265 796 l 1
 513 796 l 1
 495 1049 l 1
 603 1049 l 1
 621 796 l 1
 768 796 l 1
 759 684 l 1
 623 684 l 1
 638 427 l 1
 853 427 l 1
282 427 m 1
 530 427 l 1
 515 684 l 1
 267 684 l 1
 282 427 l 1
EndSplineSet
EndChar

StartChar: dollar
Encoding: 36 36 4
Width: 847
Flags: W
HStem: 0 100<188.966 334 453 543.279> 962 88<46.5068 115 231 387.422>
VStem: -88 122<731.329 947.299> 573 123<130.998 350.724>
LayerCount: 2
Fore
SplineSet
686 308 m 0
 693 278 696 250 696 224 c 0
 696 87 604 -0 453 0 c 1
 478 -107 l 1
 382 -107 l 1
 357 0 l 1
 240 0 138 27 78 51 c 1
 22 296 l 1
 72 296 l 1
 131 189 l 1
 178 141 255 100 334 100 c 1
 243 494 l 1
 202 517 l 1
 74 560 -41 625 -79 788 c 0
 -85 815 -88 841 -88 865 c 0
 -88 978 -19 1050 115 1050 c 1
 92 1147 l 1
 188 1147 l 1
 211 1050 l 1
 305 1050 405 1028 453 1017 c 1
 503 803 l 1
 453 803 l 1
 407 906 l 1
 359 943 275 962 231 962 c 1
 310 620 l 1
 388 594 l 2
 568 533 654 446 686 308 c 0
429 102 m 1
 517 116 573 136 573 212 c 0
 573 227 571 245 566 265 c 0
 538 385 454 430 345 468 c 1
 429 102 l 1
135 962 m 1
 65 953 34 933 34 880 c 0
 34 866 36 848 41 828 c 0
 66 717 107 683 208 645 c 1
 135 962 l 1
EndSplineSet
EndChar

StartChar: percent
Encoding: 37 37 5
Width: 1378
Flags: W
HStem: -13 57<943.703 1099.42> 484 56<130.06 283.231 843.224 1022.43> 993 56<35.0768 192.103>
VStem: -101 115<675.055 982.105> 308 116<551.494 861.368> 714 116<178.457 485.416> 1123 115<55.6208 364.053>
LayerCount: 2
Fore
SplineSet
385 -9 m 1
 264 -9 l 1
 745 1049 l 1
 867 1049 l 1
 385 -9 l 1
99 1049 m 0
 247 1049 364 970 410 769 c 0
 418 733 424 697 424 664 c 0
 424 563 376 484 224 484 c 0
 28 484 -54 625 -88 769 c 0
 -96 803 -101 838 -101 870 c 0
 -101 970 -53 1049 99 1049 c 0
211 540 m 256
 269 540 308 567 308 651 c 0
 308 682 302 721 291 769 c 0
 251 944 187 993 107 993 c 256
 39 993 14 955 14 889 c 0
 14 856 20 816 31 769 c 0
 64 628 109 540 211 540 c 256
913 553 m 0
 1083 553 1184 450 1225 272 c 0
 1234 234 1238 198 1238 167 c 0
 1238 53 1178 -13 1040 -13 c 0
 868 -13 768 94 727 272 c 0
 719 307 714 341 714 373 c 0
 714 473 762 553 913 553 c 0
1027 44 m 256
 1085 44 1123 71 1123 155 c 0
 1123 186 1118 224 1107 272 c 0
 1067 448 1002 496 922 496 c 256
 855 496 830 459 830 394 c 0
 830 360 836 319 847 272 c 0
 880 132 925 44 1027 44 c 256
EndSplineSet
EndChar

StartChar: ampersand
Encoding: 38 38 6
Width: 1311
Flags: W
HStem: 0 66<327.003 629.165 1145.37 1208> 593 40<689 766.824 969.368 1030> 997 61<185.138 386.082>
VStem: 15 147<206.206 490.018 762.397 983.199> 464 134<684.522 932.717> 814 123<305.348 570.452>
LayerCount: 2
Fore
SplineSet
269 1058 m 0
 505 1058 572 930 592 844 c 0
 596 826 598 809 598 793 c 0
 598 677 493 628 397 588 c 1
 788 294 l 1
 800 341 814 405 814 473 c 0
 814 505 811 539 803 572 c 1
 689 593 l 1
 680 633 l 1
 1030 633 l 1
 1039 593 l 1
 937 572 l 1
 937 510 920 355 866 235 c 1
 1078 75 l 1
 1208 56 l 1
 1221 0 l 1
 957 0 l 1
 796 134 l 1
 729 58 636 0 470 0 c 0
 138 0 50 173 24 288 c 0
 18 315 15 340 15 363 c 0
 15 492 112 544 208 584 c 1
 143 635 62 716 34 834 c 0
 30 852 27 872 27 892 c 0
 27 972 72 1058 269 1058 c 0
171 297 m 0
 208 140 324 66 476 66 c 0
 586 66 670 103 732 183 c 1
 269 533 l 1
 204 502 162 454 162 371 c 0
 162 349 165 324 171 297 c 0
283 997 m 0
 212 997 159 976 159 902 c 0
 159 887 162 870 166 850 c 0
 187 758 251 689 333 636 c 1
 411 668 464 701 464 785 c 0
 464 804 462 825 456 850 c 0
 433 948 376 997 283 997 c 0
EndSplineSet
EndChar

StartChar: quotesingle
Encoding: 39 39 7
Width: 391
Flags: W
HStem: 785 445<-91 -24>
VStem: -91 67<785 877.457>
LayerCount: 2
Fore
SplineSet
-160 1230 m 1
 17 1230 l 1
 -24 785 l 1
 -91 785 l 1
 -160 1230 l 1
EndSplineSet
EndChar

StartChar: parenleft
Encoding: 40 40 8
Width: 654
Flags: W
VStem: -48 158<474.297 973.925>
LayerCount: 2
Fore
SplineSet
659 -410 m 1
 314 -248 100 -42 -9 427 c 256
 -36 543 -48 643 -48 729 c 0
 -48 997 72 1140 273 1261 c 1
 290 1186 l 1
 151 1094 110 945 110 795 c 0
 110 671 138 545 160 451 c 0
 162 443 164 435 165 427 c 0
 258 28 382 -204 641 -335 c 1
 659 -410 l 1
EndSplineSet
EndChar

StartChar: parenright
Encoding: 41 41 9
Width: 654
Flags: W
VStem: 345 160<-120.112 384.806>
LayerCount: 2
Fore
SplineSet
-201 1261 m 1
 143 1098 357 897 465 427 c 256
 492 310 505 210 505 123 c 0
 505 -145 384 -289 185 -410 c 1
 167 -335 l 1
 291 -253 345 -131 345 46 c 0
 345 152 325 278 291 427 c 0
 235 672 148 1017 -184 1186 c 1
 -201 1261 l 1
EndSplineSet
EndChar

StartChar: asterisk
Encoding: 42 42 10
Width: 782
Flags: W
HStem: 441 608 920 20G<-83.4783 -45.8974 403.872 441.586>
VStem: 93 114<1008.15 1049> 233 114<441 480.688>
LayerCount: 2
Fore
SplineSet
-100 825 m 1xb0
 -80 940 l 1x70
 186 784 l 1
 93 1049 l 1
 207 1049 l 1xb0
 233 784 l 1
 429 940 l 1x70
 502 824 l 1
 278 744 l 1
 538 666 l 1
 519 552 l 1
 252 704 l 1
 347 441 l 1
 233 441 l 1
 204 706 l 1
 10 548 l 1
 -63 664 l 1
 157 744 l 1
 -100 825 l 1xb0
EndSplineSet
EndChar

StartChar: plus
Encoding: 43 43 11
Width: 1026
Flags: W
HStem: 404 116<-3 336 479 816>
LayerCount: 2
Fore
SplineSet
563 37 m 1
 447 37 l 1
 363 404 l 1
 -3 404 l 1
 -30 520 l 1
 336 520 l 1
 251 888 l 1
 367 888 l 1
 452 520 l 1
 816 520 l 1
 843 404 l 1
 479 404 l 1
 563 37 l 1
EndSplineSet
EndChar

StartChar: comma
Encoding: 44 44 12
Width: 455
Flags: W
HStem: -276 474
VStem: 265 98<-162.875 -8.31044>
LayerCount: 2
Fore
SplineSet
190 198 m 0
 265 198 333 138 353 52 c 0
 360 23 363 -4 363 -29 c 0
 363 -175 253 -244 154 -276 c 1
 138 -206 l 1
 193 -187 265 -152 265 -81 c 0
 265 -73 264 -64 262 -55 c 0
 246 13 128 -4 104 98 c 0
 102 108 101 117 101 126 c 0
 101 183 151 198 190 198 c 0
EndSplineSet
EndChar

StartChar: hyphen
Encoding: 45 45 13
Width: 717
Flags: W
HStem: 478 168<99 618>
VStem: 60 597
LayerCount: 2
Fore
SplineSet
99 478 m 1
 60 646 l 1
 618 646 l 1
 657 478 l 1
 99 478 l 1
EndSplineSet
EndChar

StartChar: period
Encoding: 46 46 14
Width: 398
Flags: W
HStem: -20 218<107.12 250.266>
VStem: 68 221<18.0103 159.99>
LayerCount: 2
Fore
SplineSet
153 198 m 0
 237 198 289 123 289 61 c 0
 289 17 263 -20 204 -20 c 0
 121 -20 68 55 68 117 c 0
 68 161 94 198 153 198 c 0
EndSplineSet
EndChar

StartChar: slash
Encoding: 47 47 15
Width: 737
Flags: W
HStem: 1195 20G<230.745 366>
VStem: 94 272
LayerCount: 2
Fore
SplineSet
229 -18 m 1
 94 -18 l 1
 233 1215 l 1
 366 1215 l 1
 229 -18 l 1
EndSplineSet
EndChar

StartChar: zero
Encoding: 48 48 16
Width: 989
Flags: W
HStem: 0 71<364.909 572.053> 1172 72<122.13 336.68>
VStem: -74 149<664.415 1119.19> 628 155<124.763 600.613>
LayerCount: 2
Fore
SplineSet
213 1244 m 0
 369 1244 620 1163 744 626 c 0
 771 512 783 416 783 336 c 0
 783 96 671 -0 493 0 c 0
 195 0 40 296 -37 626 c 0
 -60 726 -74 822 -74 907 c 0
 -74 1104 0 1244 213 1244 c 0
477 71 m 0
 586 71 628 153 628 287 c 0
 628 379 608 495 578 626 c 256
 503 952 406 1172 222 1172 c 0
 117 1172 75 1104 75 975 c 0
 75 886 95 769 128 626 c 256
 210 275 301 71 477 71 c 0
EndSplineSet
EndChar

StartChar: one
Encoding: 49 49 17
Width: 783
Flags: W
HStem: 0 50<82 141.129 653.661 719> 1210 20G<145.4 226.61>
LayerCount: 2
Fore
SplineSet
482 102 m 1
 719 50 l 1
 731 0 l 1
 82 0 l 1
 70 50 l 1
 328 102 l 1
 105 1070 l 1
 -119 982 l 1
 -130 1030 l 1
 176 1230 l 1
 222 1230 l 1
 482 102 l 1
EndSplineSet
EndChar

StartChar: two
Encoding: 50 50 18
Width: 971
Flags: W
HStem: 0 139<203 824> 950 21G<-65.6552 -5> 1146 75<14.4945 322.621>
VStem: -61 56<950 1011.59> 473 164<612.99 980.291>
LayerCount: 2
Fore
SplineSet
154 1221 m 0
 497 1221 595 1032 624 906 c 0
 633 868 637 832 637 799 c 0
 637 643 551 528 454 418 c 1
 203 139 l 1
 824 139 l 1
 856 0 l 1
 117 0 l 1
 86 133 l 1
 326 410 l 1
 426 533 473 628 473 751 c 0
 473 798 466 848 453 906 c 0
 409 1098 295 1146 171 1146 c 0
 96 1146 30 1121 -5 1098 c 1
 -5 950 l 1
 -61 950 l 1
 -115 1182 l 1
 32 1220 98 1221 154 1221 c 0
EndSplineSet
EndChar

StartChar: three
Encoding: 51 51 19
Width: 992
Flags: W
HStem: -18 74<241.706 601.408> 586 89<211 439.659> 949 21G<-51.6352 10> 1145 75<30.2333 344.245>
VStem: -47 57<949 1010.86> 476 163<711.464 1004.66> 667 165<109.232 422.582>
LayerCount: 2
Fore
SplineSet
432 632 m 1
 628 610 775 529 821 328 c 0
 829 295 832 265 832 238 c 0
 832 58 679 -18 473 -18 c 0
 344 -18 224 1 140 20 c 1
 72 274 l 1
 132 274 l 1
 211 105 l 1
 259 81 361 56 442 56 c 0
 610 56 667 122 667 230 c 0
 667 262 662 298 653 337 c 0
 613 509 503 586 341 586 c 1
 211 586 l 1
 194 675 l 1
 320 675 l 1
 428 675 476 728 476 820 c 0
 476 847 472 878 464 912 c 0
 428 1072 346 1145 191 1145 c 0
 113 1145 45 1119 10 1097 c 1
 10 949 l 1
 -47 949 l 1
 -101 1182 l 1
 -16 1205 60 1220 173 1220 c 0
 402 1220 578 1142 629 923 c 0
 636 893 639 866 639 841 c 0
 639 719 560 651 432 632 c 1
EndSplineSet
EndChar

StartChar: four
Encoding: 52 52 20
Width: 997
Flags: W
HStem: 0 21G<593.414 753> 266 129<70 507 692 825> 1194 20G<359.386 477.615>
LayerCount: 2
Fore
SplineSet
692 266 m 1
 753 0 l 1
 598 0 l 1
 537 266 l 1
 0 266 l 1
 -29 386 l 1
 369 1214 l 1
 473 1214 l 1
 662 395 l 1
 825 395 l 1
 855 266 l 1
 692 266 l 1
367 1002 m 1
 362 1002 l 1
 70 395 l 1
 507 395 l 1
 367 1002 l 1
EndSplineSet
EndChar

StartChar: five
Encoding: 53 53 21
Width: 954
Flags: W
HStem: -19 75<232.165 577.693> 607 76<89.7322 268.749> 629 76<88.1629 464.897> 1091 139<0 498>
VStem: 641 161<110.109 439.986>
LayerCount: 2
Fore
SplineSet
93 683 m 1xd8
 170 701 244 705 296 705 c 0
 604 705 741 566 789 358 c 0
 798 319 802 283 802 250 c 0
 802 66 664 -19 448 -19 c 0
 334 -19 220 -6 124 20 c 1
 66 274 l 1
 126 274 l 1
 205 104 l 1
 262 76 349 56 417 56 c 0
 584 56 641 122 641 230 c 0
 641 266 635 305 625 349 c 0
 581 540 502 629 271 629 c 0xb8
 223 629 174 624 116 607 c 1
 30 607 l 1
 -114 1230 l 1
 498 1230 l 1
 530 1091 l 1
 0 1091 l 1
 93 683 l 1xd8
EndSplineSet
EndChar

StartChar: six
Encoding: 54 54 22
Width: 983
Flags: W
HStem: -18 71<384.201 619.344> 636 86<189.22 518.866> 1145 75<172.076 459.482>
VStem: -65 154<647.38 1045.99> 662 158<84.6955 438.079>
LayerCount: 2
Fore
SplineSet
397 722 m 256
 554 722 739 653 804 374 c 0
 815 328 820 285 820 245 c 0
 820 81 725 -18 525 -18 c 0
 358 -18 87 71 -35 596 c 0
 -56 686 -65 764 -65 831 c 0
 -65 1136 125 1220 273 1220 c 0
 362 1220 466 1206 541 1189 c 1
 590 981 l 1
 531 981 l 1
 469 1104 l 1
 432 1122 354 1145 291 1145 c 0
 202 1145 89 1099 89 880 c 0
 89 817 98 739 120 645 c 1
 178 680 279 722 397 722 c 256
132 591 m 1
 224 190 356 53 506 53 c 0
 621 53 662 111 662 209 c 0
 662 251 655 301 642 357 c 0
 591 577 499 636 383 636 c 0
 289 636 204 616 132 591 c 1
EndSplineSet
EndChar

StartChar: seven
Encoding: 55 55 23
Width: 929
Flags: W
HStem: 0 21G<187 307.78> 1069 161<-62 469>
VStem: -123 61<922 984.19>
LayerCount: 2
Fore
SplineSet
-62 922 m 1
 -123 922 l 1
 -194 1230 l 1
 554 1230 l 1
 575 1138 l 1
 303 0 l 1
 187 0 l 1
 469 1069 l 1
 -62 1069 l 1
 -62 922 l 1
EndSplineSet
EndChar

StartChar: eight
Encoding: 56 56 24
Width: 1001
Flags: W
HStem: -18 71<342.138 624.478> 600 79<224.5 462.124> 1154 72<123.57 363.931>
VStem: -71 160<823.501 1126.98> 28 156<234.12 560.605> 499 158<708.518 1005.82> 674 160<92.7189 416.079>
LayerCount: 2
Fore
SplineSet
224 1226 m 0xf6
 432 1226 599 1127 648 913 c 0
 655 885 657 859 657 836 c 0
 657 724 589 667 533 640 c 1
 642 603 777 514 821 326 c 0
 830 286 834 251 834 219 c 0
 834 33 685 -18 504 -18 c 0
 258 -18 94 85 39 326 c 0
 31 359 28 390 28 417 c 0xee
 28 544 103 609 180 640 c 1
 101 673 -22 749 -60 913 c 0
 -67 943 -71 972 -71 1000 c 0
 -71 1125 4 1226 224 1226 c 0xf6
488 53 m 0
 627 53 674 114 674 212 c 0
 674 246 669 284 659 326 c 0
 617 505 534 600 361 600 c 0
 233 600 184 550 184 450 c 0
 184 415 190 373 201 326 c 0
 241 151 309 53 488 53 c 0
344 679 m 256
 454 679 499 727 499 816 c 0
 499 844 495 877 486 913 c 0
 453 1059 381 1154 235 1154 c 256
 128 1154 89 1102 89 1015 c 0xf6
 89 985 93 951 102 913 c 0
 137 761 201 679 344 679 c 256
EndSplineSet
EndChar

StartChar: nine
Encoding: 57 57 25
Width: 1000
Flags: W
HStem: -18 74<234.426 541.843> 479 87<219.004 547.115> 1148 72<124.788 355.188>
VStem: -92 162<752.193 1104.05> 638 155<149.522 552.621>
LayerCount: 2
Fore
SplineSet
347 479 m 0
 185 479 -14 564 -78 839 c 0
 -87 880 -92 919 -92 954 c 0
 -92 1128 24 1220 222 1220 c 0
 461 1220 652 1081 762 606 c 0
 784 512 793 431 793 363 c 0
 793 47 590 -18 436 -18 c 0
 329 -18 243 -7 160 12 c 1
 112 221 l 1
 171 221 l 1
 232 92 l 1
 267 77 337 56 416 56 c 0
 513 56 638 100 638 329 c 0
 638 390 629 464 608 555 c 1
 543 514 458 479 347 479 c 0
594 614 m 1
 498 1032 380 1148 241 1148 c 0
 137 1148 70 1098 70 969 c 0
 70 931 76 887 88 835 c 0
 136 630 239 566 372 566 c 0
 460 566 533 587 594 614 c 1
EndSplineSet
EndChar

StartChar: colon
Encoding: 58 58 26
Width: 397
Flags: W
HStem: 0 220<102.142 244.403> 642 218<-46.2662 97.1405>
VStem: -85 222<680.01 820.219> 63 220<38.5332 181.56>
LayerCount: 2
Fore
SplineSet
148 220 m 0xd0
 231 220 283 144 283 82 c 0
 283 38 257 -0 199 0 c 0
 116 0 63 76 63 139 c 0
 63 183 89 220 148 220 c 0xd0
0 860 m 0
 65 860 121 806 134 751 c 0
 136 742 137 733 137 725 c 0
 137 675 99 642 51 642 c 0
 -33 642 -85 717 -85 779 c 0xe0
 -85 823 -59 860 0 860 c 0
EndSplineSet
EndChar

StartChar: semicolon
Encoding: 59 59 27
Width: 456
Flags: W
HStem: 642 218<2.08276 146.271>
VStem: -37 223<682.164 820.219> 266 98<-163 -8.31044>
LayerCount: 2
Fore
SplineSet
51 860 m 0
 116 860 170 806 183 751 c 0
 185 742 186 733 186 724 c 0
 186 674 150 642 102 642 c 0
 38 642 -21 692 -34 751 c 0
 -36 759 -37 767 -37 775 c 0
 -37 821 -5 860 51 860 c 0
190 198 m 0
 266 198 334 139 354 52 c 0
 361 23 364 -4 364 -29 c 0
 364 -176 253 -244 154 -276 c 1
 138 -206 l 1
 193 -187 266 -152 266 -81 c 0
 266 -73 265 -64 263 -55 c 0
 247 13 128 -4 104 98 c 0
 102 108 101 117 101 125 c 0
 101 183 151 198 190 198 c 0
EndSplineSet
EndChar

StartChar: less
Encoding: 60 60 28
Width: 1031
Flags: W
LayerCount: 2
Fore
SplineSet
739 876 m 1
 768 751 l 1
 216 520 l 1
 876 282 l 1
 905 158 l 1
 -26 502 l 1
 -34 539 l 1
 739 876 l 1
EndSplineSet
EndChar

StartChar: equal
Encoding: 61 61 29
Width: 1026
Flags: W
HStem: 301 117<21 839> 612 117<-51 768>
LayerCount: 2
Fore
SplineSet
-78 729 m 1
 768 729 l 1
 795 612 l 1
 -51 612 l 1
 -78 729 l 1
-7 418 m 1
 839 418 l 1
 867 301 l 1
 21 301 l 1
 -7 418 l 1
EndSplineSet
EndChar

StartChar: greater
Encoding: 62 62 30
Width: 1031
Flags: W
LayerCount: 2
Fore
SplineSet
-112 876 m 1
 817 539 l 1
 825 502 l 1
 54 158 l 1
 25 282 l 1
 575 520 l 1
 -83 751 l 1
 -112 876 l 1
EndSplineSet
EndChar

StartChar: question
Encoding: 63 63 31
Width: 827
Flags: W
HStem: -20 218<243.12 385.639> 952 21G<-134.629 -68> 1110 110<-66.9547 281.723>
VStem: -130 62<952 1013.94> 204 221<18.0103 158.625> 379 160<667.103 989.712>
LayerCount: 2
Fore
SplineSet
73 1220 m 0xf4
 306 1220 476 1132 526 914 c 0
 535 875 539 840 539 808 c 0
 539 660 448 587 325 560 c 1
 288 551 l 1
 319 314 l 1
 233 314 l 1
 128 608 l 1
 276 641 l 1
 350 656 379 707 379 784 c 0
 379 818 373 858 363 903 c 0
 321 1085 251 1110 97 1110 c 0
 27 1110 -29 1093 -68 1066 c 1
 -68 952 l 1
 -130 952 l 1
 -183 1181 l 1
 -111 1202 -33 1220 73 1220 c 0xf4
289 198 m 0
 353 198 410 145 422 89 c 256
 424 81 425 72 425 64 c 0
 425 19 395 -20 340 -20 c 0
 257 -20 204 55 204 117 c 0xf8
 204 161 230 198 289 198 c 0
EndSplineSet
EndChar

StartChar: at
Encoding: 64 64 32
Width: 1343
Flags: W
HStem: -355 93<355.099 753.659> -24 151<460.675 602.167> 9 147<811.5 981.209> 582 134<481.125 676.079> 1020 81<436.087 816.182>
VStem: 23 94<105.526 661.247> 263 160<158.065 521> 1048 75<233.327 703.468>
LayerCount: 2
Fore
SplineSet
853 9 m 0xbf
 770 9 715 65 715 231 c 1
 702 231 l 1
 683 150 649 -24 481 -24 c 0xdf
 393 -24 321 35 280 214 c 0
 270 257 263 308 263 361 c 0
 263 531 335 716 604 716 c 0
 670 716 752 706 848 687 c 1
 848 414 864 250 877 193 c 0
 884 165 904 156 936 156 c 0
 995 156 1048 275 1048 444 c 0
 1048 507 1040 578 1023 652 c 0
 1001 751 947 1020 642 1020 c 0
 393 1020 256 887 179 706 c 0
 135 602 117 492 117 385 c 0
 117 124 226 -115 324 -197 c 0
 377 -240 442 -262 521 -262 c 0
 624 -262 792 -231 903 -126 c 1
 924 -217 l 1
 836 -292 703 -355 534 -355 c 0
 392 -355 191 -284 91 23 c 1
 44 168 23 301 23 419 c 0
 23 855 308 1101 631 1101 c 0
 828 1101 1002 984 1067 782 c 0
 1079 746 1089 711 1097 677 c 0
 1114 602 1123 525 1123 450 c 0
 1123 216 1037 9 853 9 c 0xbf
594 582 m 0
 458 582 423 460 423 352 c 0
 423 309 428 269 435 239 c 0
 440 217 456 127 526 127 c 0
 528 127 529 127 531 127 c 1
 602 127 688 258 688 310 c 1
 688 392 l 1
 688 451 683 508 676 571 c 1
 644 579 618 582 594 582 c 0
EndSplineSet
EndChar

StartChar: A
Encoding: 65 65 33
Width: 1350
Flags: W
HStem: 0 48<0 62.1207 287.662 384 788 866.457 1195.82 1287> 421 81<266 686> 1197 20G<262.43 448.098>
LayerCount: 2
Fore
SplineSet
384 48 m 1
 395 0 l 1
 0 0 l 1
 -13 48 l 1
 118 73 l 1
 265 1217 l 1
 436 1217 l 1
 1128 73 l 1
 1287 48 l 1
 1298 0 l 1
 788 0 l 1
 777 48 l 1
 933 73 l 1
 733 421 l 1
 258 421 l 1
 216 73 l 1
 384 48 l 1
338 1088 m 1
 266 502 l 1
 686 502 l 1
 338 1088 l 1
EndSplineSet
EndChar

StartChar: B
Encoding: 66 66 34
Width: 1240
Flags: W
HStem: -6 81<170.641 215 387 829.434> 0 47<77 151.443> 588 81<270 624.711> 1126 81<146 539.992> 1159 48<-191 -90.648>
VStem: 686 180<725.49 996.321> 909 186<139.401 432.398>
LayerCount: 2
Fore
SplineSet
449 669 m 2x36
 624 669 686 729 686 830 c 0
 686 856 682 884 675 914 c 0
 636 1083 506 1126 332 1126 c 2
 146 1126 l 1
 252 669 l 1
 449 669 l 2x36
653 75 m 0xa6
 839 75 909 146 909 258 c 0
 909 285 905 313 898 344 c 0
 864 490 765 588 486 588 c 2
 270 588 l 1
 387 81 l 1
 472 81 564 75 653 75 c 0xa6
694 -6 m 0
 501 -6 462 0 308 0 c 2
 77 0 l 1
 66 47 l 1
 215 72 l 1
 -30 1136 l 1
 -191 1159 l 1
 -202 1207 l 1x6e
 350 1207 l 2x36
 605 1207 806 1150 858 923 c 0
 864 899 866 876 866 855 c 0
 866 732 777 666 675 642 c 1
 877 642 1043 524 1084 347 c 0
 1090 319 1095 288 1095 256 c 0
 1095 130 1021 -6 694 -6 c 0
EndSplineSet
EndChar

StartChar: C
Encoding: 67 67 35
Width: 1287
Flags: W
HStem: -18 69<522.931 920.237> 1148 72<271.021 691.34>
VStem: -64 185<550.522 1010.03> 1019 59<252.993 322>
LayerCount: 2
Fore
SplineSet
152 591 m 0
 259 126 536 51 710 51 c 0
 880 51 977 103 1019 142 c 1
 1019 322 l 1
 1078 322 l 1
 1137 38 l 1
 1042 9 895 -18 724 -18 c 0
 345 -18 54 194 -37 589 c 0
 -55 667 -64 737 -64 801 c 0
 -64 1077 105 1220 442 1220 c 0
 563 1220 691 1208 857 1174 c 1
 924 911 l 1
 864 911 l 1
 801 1067 l 1
 680 1132 545 1148 466 1148 c 0
 257 1148 121 1069 121 827 c 0
 121 761 131 683 152 591 c 0
EndSplineSet
EndChar

StartChar: D
Encoding: 68 68 36
Width: 1376
Flags: W
HStem: -4 81<177.308 215 386 838.256> 0 48<77 155.003> 1126 81<145 549.571> 1159 48<-191 -90.648>
VStem: 981 185<201.623 667.691>
LayerCount: 2
Fore
SplineSet
644 77 m 0xa8
 849 77 981 156 981 391 c 0
 981 453 972 527 952 612 c 256
 857 1023 560 1126 307 1126 c 2
 145 1126 l 1
 386 84 l 1
 412 84 541 77 644 77 c 0xa8
663 -4 m 0
 482 -4 367 0 232 0 c 2
 77 0 l 1
 66 48 l 1
 215 72 l 1
 -30 1136 l 1
 -191 1159 l 1
 -202 1207 l 1x58
 346 1207 l 2
 766 1207 1043 1031 1140 610 c 0
 1156 541 1166 472 1166 407 c 0
 1166 180 1047 -4 663 -4 c 0
EndSplineSet
EndChar

StartChar: E
Encoding: 69 69 37
Width: 1176
Flags: W
HStem: 0 81<386 921.282> 0 48<77 154.405> 573 81<273 575> 1126 81<145 635.55> 1159 48<-191 -91.2713>
VStem: 575 57<735.596 798> 924 59<238.769 319>
LayerCount: 2
Fore
SplineSet
66 48 m 1x66
 214 72 l 1
 -31 1136 l 1
 -191 1159 l 1
 -202 1207 l 1
 703 1207 l 1x6e
 770 918 l 1
 711 918 l 1
 637 1113 l 1
 607 1117 517 1126 342 1126 c 2
 145 1126 l 1
 254 654 l 1
 575 654 l 1
 575 798 l 1
 632 798 l 1
 717 428 l 1
 660 428 l 1
 599 573 l 1
 273 573 l 1
 386 81 l 1
 624 81 l 2xb6
 684 81 868 84 924 95 c 1
 924 319 l 1
 983 319 l 1
 1040 0 l 1
 77 0 l 1
 66 48 l 1x66
EndSplineSet
EndChar

StartChar: F
Encoding: 70 70 38
Width: 1079
Flags: W
HStem: 0 48<82 152.835 464.949 588> 542 81<274 605> 1126 81<139 628.596> 1159 48<-198 -97.648>
VStem: 605 55<705.155 767>
LayerCount: 2
Fore
SplineSet
274 542 m 1xe8
 382 72 l 1
 588 48 l 1
 599 0 l 1
 82 0 l 1
 71 48 l 1
 208 72 l 1
 -37 1136 l 1
 -198 1159 l 1
 -209 1207 l 1
 697 1207 l 1xd8
 764 918 l 1
 704 918 l 1
 630 1113 l 1
 601 1117 511 1126 336 1126 c 2
 139 1126 l 1
 255 623 l 1
 605 623 l 1
 605 767 l 1
 660 767 l 1
 746 396 l 1
 691 396 l 1
 629 542 l 1
 274 542 l 1xe8
EndSplineSet
EndChar

StartChar: G
Encoding: 71 71 39
Width: 1349
Flags: W
HStem: -18 69<521.546 915.551> 479 48<741 837.171 1119.7 1175> 1148 72<272.506 691.161>
VStem: -63 184<550.127 1006.84>
LayerCount: 2
Fore
SplineSet
710 51 m 0
 824 51 939 85 981 112 c 1
 902 455 l 1
 741 479 l 1
 730 527 l 1
 1175 527 l 1
 1186 479 l 1
 1075 455 l 1
 1165 63 l 1
 949 -14 802 -18 742 -18 c 2
 725 -18 l 2
 345 -18 56 191 -36 589 c 0
 -55 670 -63 741 -63 803 c 0
 -63 1131 175 1220 442 1220 c 0
 600 1220 745 1199 879 1166 c 1
 939 907 l 1
 879 907 l 1
 819 1056 l 1
 728 1112 602 1148 466 1148 c 0
 257 1148 121 1067 121 825 c 0
 121 759 131 682 152 591 c 0
 260 120 536 51 710 51 c 0
EndSplineSet
EndChar

StartChar: H
Encoding: 72 72 40
Width: 1392
Flags: W
HStem: 0 48<77 155.003 453.427 549 819 896.405 1193.83 1290> 581 81<272 820> 1159 48<-191 -90.648 199.751 281 551 650.729 940.128 1022>
LayerCount: 2
Fore
SplineSet
77 0 m 1
 66 48 l 1
 215 72 l 1
 -30 1136 l 1
 -191 1159 l 1
 -202 1207 l 1
 281 1207 l 1
 292 1159 l 1
 144 1136 l 1
 253 662 l 1
 820 662 l 1
 711 1136 l 1
 551 1159 l 1
 540 1207 l 1
 1022 1207 l 1
 1033 1159 l 1
 884 1136 l 1
 1129 72 l 1
 1290 48 l 1
 1301 0 l 1
 819 0 l 1
 808 48 l 1
 956 72 l 1
 839 581 l 1
 272 581 l 1
 389 72 l 1
 549 48 l 1
 560 0 l 1
 77 0 l 1
EndSplineSet
EndChar

StartChar: I
Encoding: 73 73 41
Width: 650
Flags: W
HStem: 0 48<77 155.003 451.829 548> 1159 48<-191 -90.648 198.128 280>
LayerCount: 2
Fore
SplineSet
387 72 m 1
 548 48 l 1
 559 0 l 1
 77 0 l 1
 66 48 l 1
 215 72 l 1
 -30 1136 l 1
 -191 1159 l 1
 -202 1207 l 1
 280 1207 l 1
 291 1159 l 1
 142 1136 l 1
 387 72 l 1
EndSplineSet
EndChar

StartChar: J
Encoding: 74 74 42
Width: 816
Flags: W
HStem: -19 77<155.802 357.822> 1158 49<-6 93.7287 376.347 446>
VStem: 372 145<76.6003 383.837>
LayerCount: 2
Fore
SplineSet
276 -19 m 0
 248 -19 158 -18 84 8 c 1
 33 228 l 1
 92 228 l 1
 148 103 l 1
 166 86 209 58 277 58 c 0
 341 58 372 91 372 157 c 0
 372 178 369 202 363 229 c 2
 154 1135 l 1
 -6 1158 l 1
 -18 1207 l 1
 446 1207 l 1
 458 1158 l 1
 327 1135 l 1
 499 388 l 2
 512 334 517 286 517 244 c 0
 517 40 381 -19 276 -19 c 0
EndSplineSet
EndChar

StartChar: K
Encoding: 75 75 43
Width: 1388
Flags: W
HStem: 0 48<77 155.003 460.077 567 1243.76 1325> 1159 48<-191 -90.648 199.128 281 596 673.913 890.477 963>
LayerCount: 2
Fore
SplineSet
963 1207 m 1
 974 1159 l 1
 840 1136 l 1
 521 733 l 1
 1189 72 l 1
 1325 48 l 1
 1336 0 l 1
 1041 0 l 1
 427 610 l 1
 294 480 l 1
 388 72 l 1
 567 48 l 1
 578 0 l 1
 77 0 l 1
 66 48 l 1
 215 72 l 1
 -30 1136 l 1
 -191 1159 l 1
 -202 1207 l 1
 281 1207 l 1
 292 1159 l 1
 143 1136 l 1
 274 567 l 1
 721 1136 l 1
 596 1159 l 1
 585 1207 l 1
 963 1207 l 1
EndSplineSet
EndChar

StartChar: L
Encoding: 76 76 44
Width: 1131
Flags: W
HStem: 0 77<388 899.742> 0 48<77 155.003> 1159 48<-191 -90.648 211.805 313>
VStem: 901 59<268.038 347>
LayerCount: 2
Fore
SplineSet
324 1159 m 1x70
 144 1136 l 1
 388 77 l 1
 626 77 l 2xb0
 795 77 875 90 901 95 c 1
 901 347 l 1
 960 347 l 1
 1023 0 l 1
 77 0 l 1
 66 48 l 1
 215 72 l 1
 -30 1136 l 1
 -191 1159 l 1
 -202 1207 l 1
 313 1207 l 1
 324 1159 l 1x70
EndSplineSet
EndChar

StartChar: M
Encoding: 77 77 45
Width: 1700
Flags: W
HStem: 0 48<77 155.003 376.648 477 1119 1201.18 1501.83 1598> 1159 48<-191 -90.648 1248.13 1330>
LayerCount: 2
Fore
SplineSet
800 0 m 1
 768 0 l 1
 86 1038 l 1
 309 72 l 1
 477 48 l 1
 488 0 l 1
 77 0 l 1
 66 48 l 1
 215 72 l 1
 -30 1136 l 1
 -191 1159 l 1
 -202 1207 l 1
 164 1207 l 1
 768 289 l 1
 984 1207 l 1
 1330 1207 l 1
 1341 1159 l 1
 1192 1136 l 1
 1437 72 l 1
 1598 48 l 1
 1609 0 l 1
 1119 0 l 1
 1108 48 l 1
 1264 72 l 1
 1041 1038 l 1
 800 0 l 1
EndSplineSet
EndChar

StartChar: N
Encoding: 78 78 46
Width: 1403
Flags: W
HStem: 0 48<77 154.405 376.648 477> 1159 48<-191 -91.2713 633 737.715 951.751 1033>
LayerCount: 2
Fore
SplineSet
801 1136 m 1
 633 1159 l 1
 622 1207 l 1
 1033 1207 l 1
 1044 1159 l 1
 896 1136 l 1
 1158 0 l 1
 1070 0 l 1
 76 1085 l 1
 309 72 l 1
 477 48 l 1
 488 0 l 1
 77 0 l 1
 66 48 l 1
 214 72 l 1
 -31 1136 l 1
 -191 1159 l 1
 -202 1207 l 1
 163 1207 l 1
 991 313 l 1
 801 1136 l 1
EndSplineSet
EndChar

StartChar: O
Encoding: 79 79 47
Width: 1378
Flags: W
HStem: -18 71<491.687 850.898> 1148 72<245.878 619.971>
VStem: -65 182<559.761 1025.03> 987 181<182.64 649.891>
LayerCount: 2
Fore
SplineSet
426 1148 m 256
 233 1148 117 1074 117 851 c 0
 117 783 128 702 150 605 c 0
 225 282 360 53 679 53 c 256
 907 53 987 170 987 354 c 0
 987 428 975 512 953 605 c 0
 879 928 745 1148 426 1148 c 256
695 -18 m 256
 406 -18 78 106 -38 605 c 256
 -57 687 -65 758 -65 821 c 0
 -65 1134 153 1220 409 1220 c 0
 705 1220 1028 1097 1141 605 c 256
 1160 524 1168 453 1168 391 c 0
 1168 69 938 -18 695 -18 c 256
EndSplineSet
EndChar

StartChar: P
Encoding: 80 80 48
Width: 1064
Flags: W
HStem: 0 48<82 152.835 460.728 579> 473 81<289 539.056> 1126 81<-106.942 -37 138 431.204> 1159 48<-198 -97.648>
VStem: 607 178<615.122 937.023>
LayerCount: 2
Fore
SplineSet
364 554 m 2xe8
 541 554 607 622 607 741 c 0
 607 773 602 810 593 850 c 0
 547 1050 441 1126 227 1126 c 2
 138 1126 l 1
 270 554 l 1
 364 554 l 2xe8
772 851 m 0
 780 815 785 779 785 744 c 0
 785 595 696 473 425 473 c 2
 289 473 l 1
 381 72 l 1
 579 48 l 1
 590 0 l 1
 82 0 l 1
 71 48 l 1
 208 72 l 1
 -37 1136 l 1
 -198 1159 l 1
 -209 1207 l 1xd8
 246 1207 l 2
 476 1207 706 1136 772 851 c 0
EndSplineSet
EndChar

StartChar: Q
Encoding: 81 81 49
Width: 1417
Flags: W
HStem: -315 89<1183.63 1376.86> -34 71<495.442 792.753> 1133 74<249.93 623.429>
VStem: -62 183<541.922 1007.76> 992 181<171.376 631.996>
LayerCount: 2
Fore
SplineSet
430 1133 m 256
 201 1133 121 1018 121 834 c 0
 121 762 133 678 154 587 c 0
 229 265 363 37 683 37 c 256
 911 37 992 153 992 338 c 0
 992 411 979 495 958 587 c 0
 884 910 748 1133 430 1133 c 256
700 -34 m 0
 409 -34 81 90 -34 587 c 256
 -52 667 -62 740 -62 805 c 0
 -62 1068 91 1207 413 1207 c 0
 707 1207 1032 1081 1146 587 c 0
 1164 509 1173 439 1173 376 c 0
 1173 197 1100 78 959 14 c 1
 1017 -42 l 2
 1124 -146 1220 -226 1304 -226 c 0
 1308 -226 1314 -223 1321 -223 c 2
 1363 -223 l 2
 1369 -223 1374 -222 1377 -222 c 1
 1391 -281 l 1
 1376 -288 1293 -315 1222 -315 c 0
 1081 -315 993 -243 822 -77 c 1
 774 -30 l 1
 759 -32 737 -34 700 -34 c 0
EndSplineSet
EndChar

StartChar: R
Encoding: 82 82 50
Width: 1296
Flags: W
HStem: 0 48<82 152.835 457.701 570 1151.17 1233> 529 81<277 494> 1126 81<139 508.658> 1159 48<-198 -97.648>
VStem: 667 174<661.642 965.148>
LayerCount: 2
Fore
SplineSet
830 885 m 0xe8
 837 854 841 825 841 798 c 0
 841 665 759 586 659 554 c 1
 1096 72 l 1
 1233 48 l 1
 1244 0 l 1
 955 0 l 1
 494 529 l 1
 277 529 l 1
 382 72 l 1
 570 48 l 1
 581 0 l 1
 82 0 l 1
 71 48 l 1
 208 72 l 1
 -37 1136 l 1
 -198 1159 l 1
 -209 1207 l 1xd8
 312 1207 l 2
 657 1207 785 1078 830 885 c 0xe8
417 610 m 2
 588 610 667 655 667 776 c 0
 667 804 662 836 654 872 c 0
 609 1067 503 1126 293 1126 c 2
 139 1126 l 1xe8
 258 610 l 1
 417 610 l 2
EndSplineSet
EndChar

StartChar: S
Encoding: 83 83 51
Width: 1025
Flags: W
HStem: -18 73<313.554 637.825> 1145 75<118.277 461.432>
VStem: -83 142<879.774 1096.08> 708 146<114.505 379.068>
LayerCount: 2
Fore
SplineSet
510 -18 m 0
 379 -18 234 6 124 46 c 1
 60 325 l 1
 120 325 l 1
 190 162 l 1
 248 105 384 55 489 55 c 0
 652 55 708 136 708 231 c 0
 708 253 705 275 700 297 c 0
 689 346 658 455 448 525 c 1
 321 566 l 2
 149 621 -22 689 -74 912 c 0
 -80 939 -83 964 -83 987 c 0
 -83 1155 73 1220 260 1220 c 0
 324 1220 423 1217 586 1182 c 1
 644 930 l 1
 586 930 l 1
 520 1078 l 1
 459 1116 375 1145 278 1145 c 0
 104 1145 59 1068 59 999 c 0
 59 986 61 972 64 960 c 0
 76 909 110 815 314 750 c 1
 440 709 l 1
 616 651 789 576 842 348 c 0
 850 313 854 279 854 246 c 0
 854 100 768 -18 510 -18 c 0
EndSplineSet
EndChar

StartChar: T
Encoding: 84 84 52
Width: 1239
Flags: W
HStem: 0 48<330 430.104 758.325 876> 1130 77<-89.7955 261 435 797.474>
VStem: -133 60<923 984.688>
LayerCount: 2
Fore
SplineSet
330 0 m 1
 319 48 l 1
 505 72 l 1
 261 1130 l 1
 215 1130 l 2
 66 1130 -46 1122 -92 1112 c 1
 -73 923 l 1
 -133 923 l 1
 -199 1207 l 1
 863 1207 l 1
 929 923 l 1
 868 923 l 1
 799 1112 l 1
 768 1118 637 1130 479 1130 c 2
 435 1130 l 1
 679 72 l 1
 876 48 l 1
 887 0 l 1
 330 0 l 1
EndSplineSet
EndChar

StartChar: U
Encoding: 85 85 53
Width: 1367
Flags: W
HStem: -19 101<456.123 853.035> 1158 49<-244 -144.895 144.504 226 598 702.092 916.128 997>
VStem: 946 97<168.827 529.391>
LayerCount: 2
Fore
SplineSet
651 82 m 0
 837 82 946 153 946 307 c 0
 946 337 942 370 933 407 c 2
 765 1135 l 1
 598 1158 l 1
 586 1207 l 1
 997 1207 l 1
 1009 1158 l 1
 860 1135 l 1
 1026 414 l 2
 1037 368 1043 322 1043 278 c 0
 1043 115 953 -19 660 -19 c 0
 286 -19 135 183 85 397 c 2
 -85 1135 l 1
 -244 1158 l 1
 -256 1207 l 1
 226 1207 l 1
 238 1158 l 1
 88 1135 l 1
 255 410 l 2
 294 243 395 82 651 82 c 0
EndSplineSet
EndChar

StartChar: V
Encoding: 86 86 54
Width: 1350
Flags: W
HStem: 1158 49<-297 -212.776 96.2187 178 600 697.365 916.139 980>
LayerCount: 2
Fore
SplineSet
980 1207 m 1
 992 1158 l 1
 865 1134 l 1
 649 -29 l 1
 603 -29 l 1
 -156 1134 l 1
 -297 1158 l 1
 -309 1207 l 1
 178 1207 l 1
 190 1158 l 1
 33 1134 l 1
 604 246 l 1
 763 1134 l 1
 600 1158 l 1
 588 1207 l 1
 980 1207 l 1
EndSplineSet
EndChar

StartChar: W
Encoding: 87 87 55
Width: 1816
Flags: W
HStem: 1158 49<-277 -210.696 81.2587 172 1058 1173.29 1397.67 1446>
LayerCount: 2
Fore
SplineSet
1357 1134 m 1
 1232 -29 l 1
 1184 -29 l 1
 679 802 l 1
 550 -29 l 1
 502 -29 l 1
 -166 1134 l 1
 -277 1158 l 1
 -289 1207 l 1
 172 1207 l 1
 184 1158 l 1
 12 1134 l 1
 495 284 l 1
 627 1121 l 1
 667 1121 l 1
 1174 284 l 1
 1251 1134 l 1
 1058 1158 l 1
 1046 1207 l 1
 1446 1207 l 1
 1458 1158 l 1
 1357 1134 l 1
EndSplineSet
EndChar

StartChar: X
Encoding: 88 88 56
Width: 1357
Flags: W
HStem: 0 48<48 112.861 338.413 431 807 883.808 1208.58 1294> 1159 48<-163 -74.4908 243.374 324 563 659.612 878.84 947>
LayerCount: 2
Fore
SplineSet
276 72 m 1
 431 48 l 1
 442 0 l 1
 48 0 l 1
 37 48 l 1
 164 72 l 1
 449 617 l 1
 -21 1136 l 1
 -163 1159 l 1
 -174 1207 l 1
 324 1207 l 1
 335 1159 l 1
 188 1136 l 1
 524 763 l 1
 718 1136 l 1
 563 1159 l 1
 552 1207 l 1
 947 1207 l 1
 958 1159 l 1
 831 1136 l 1
 595 684 l 1
 1151 72 l 1
 1294 48 l 1
 1305 0 l 1
 807 0 l 1
 796 48 l 1
 943 72 l 1
 519 540 l 1
 276 72 l 1
EndSplineSet
EndChar

StartChar: Y
Encoding: 89 89 57
Width: 1314
Flags: W
HStem: 0 48<327 427.104 755.325 873> 1159 48<-309 -220.491 104.765 191 562 661.105 875.84 944>
LayerCount: 2
Fore
SplineSet
583 475 m 1
 676 72 l 1
 873 48 l 1
 884 0 l 1
 327 0 l 1
 316 48 l 1
 502 72 l 1
 410 470 l 1
 -167 1136 l 1
 -309 1159 l 1
 -320 1207 l 1
 191 1207 l 1
 202 1159 l 1
 46 1136 l 1
 520 579 l 1
 721 1136 l 1
 562 1159 l 1
 551 1207 l 1
 944 1207 l 1
 955 1159 l 1
 828 1136 l 1
 583 475 l 1
EndSplineSet
EndChar

StartChar: Z
Encoding: 90 90 58
Width: 1150
Flags: W
HStem: 0 76<280 895.108> 1130 77<-6.75372 518>
VStem: -55 46<922 983.905> 898 63<246.798 336>
LayerCount: 2
Fore
SplineSet
82 85 m 1
 518 1130 l 1
 293 1130 l 2
 144 1130 38 1122 -9 1112 c 1
 -9 922 l 1
 -55 922 l 1
 -121 1207 l 1
 701 1207 l 1
 719 1130 l 1
 280 76 l 1
 541 76 l 2
 668 76 838 91 898 105 c 1
 898 336 l 1
 961 336 l 1
 1015 0 l 1
 102 0 l 1
 82 85 l 1
EndSplineSet
EndChar

StartChar: bracketleft
Encoding: 91 91 59
Width: 590
Flags: W
HStem: -256 42<442.449 549> 1227 42<116.648 207>
LayerCount: 2
Fore
SplineSet
149 -256 m 1
 -203 1269 l 1
 207 1269 l 1
 217 1227 l 1
 -42 1190 l 1
 274 -177 l 1
 549 -214 l 1
 559 -256 l 1
 149 -256 l 1
EndSplineSet
EndChar

StartChar: backslash
Encoding: 92 92 60
Width: 737
Flags: W
HStem: 1194 20G<-190 -45.5065>
LayerCount: 2
Fore
SplineSet
517 -18 m 1
 -190 1214 l 1
 -57 1214 l 1
 651 -18 l 1
 517 -18 l 1
EndSplineSet
EndChar

StartChar: bracketright
Encoding: 93 93 61
Width: 590
Flags: W
HStem: -256 42<149 239.352> 1227 42<-193 -86.4486>
LayerCount: 2
Fore
SplineSet
149 -256 m 1
 139 -214 l 1
 398 -177 l 1
 82 1190 l 1
 -193 1227 l 1
 -203 1269 l 1
 207 1269 l 1
 559 -256 l 1
 149 -256 l 1
EndSplineSet
EndChar

StartChar: asciicircum
Encoding: 94 94 62
Width: 975
Flags: W
HStem: 428 637
LayerCount: 2
Fore
SplineSet
299 1065 m 1
 786 428 l 1
 649 428 l 1
 273 928 l 1
 127 428 l 1
 -9 428 l 1
 184 1065 l 1
 299 1065 l 1
EndSplineSet
EndChar

StartChar: underscore
Encoding: 95 95 63
Width: 1130
Flags: W
HStem: -592 92<227 1155>
LayerCount: 2
Fore
SplineSet
227 -592 m 1
 205 -500 l 1
 1155 -500 l 1
 1177 -592 l 1
 227 -592 l 1
EndSplineSet
EndChar

StartChar: grave
Encoding: 96 96 64
Width: 548
Flags: W
HStem: 956 274
VStem: -194 425
LayerCount: 2
Fore
SplineSet
188 956 m 1
 -186 1197 l 1
 -194 1230 l 1
 0 1230 l 1
 231 985 l 1
 237 956 l 1
 188 956 l 1
EndSplineSet
EndChar

StartChar: a
Encoding: 97 97 65
Width: 968
Flags: W
HStem: -20 110<271.697 528.241> 0 45<827.467 898> 479 70<235.031 498> 885 76<123.605 384.333>
VStem: 30 163<178.961 445.919> 41 63<721 782.227>
LayerCount: 2
Fore
SplineSet
-7 926 m 1xb4
 144 960 219 961 263 961 c 2
 270 961 l 2
 497 961 593 859 628 705 c 2
 775 70 l 1
 898 45 l 1
 908 0 l 1
 650 0 l 1x74
 609 94 l 1
 547 13 449 -20 345 -20 c 0
 200 -20 89 54 41 260 c 0xb4
 33 292 30 321 30 346 c 0xb8
 30 517 188 549 358 549 c 1
 498 549 l 1
 464 696 l 2
 431 840 363 885 276 885 c 0
 230 885 158 874 104 838 c 1
 104 721 l 1
 41 721 l 1
 -7 926 l 1xb4
387 90 m 0xb8
 430 90 490 90 592 145 c 1
 514 479 l 1
 384 479 l 1
 255 479 193 443 193 348 c 0
 193 325 197 298 204 266 c 0
 231 149 292 90 387 90 c 0xb8
EndSplineSet
EndChar

StartChar: b
Encoding: 98 98 66
Width: 1035
Flags: W
HStem: -20 86<303.895 638.897> 860 105<157.399 485.362> 1376 45<-298 -212.581>
VStem: 700 175<126.765 554.725>
LayerCount: 2
Fore
SplineSet
509 66 m 0
 625 66 700 123 700 285 c 0
 700 342 691 411 671 496 c 0
 624 703 529 860 325 860 c 0
 245 860 164 843 132 827 c 1
 304 82 l 1
 362 71 443 66 509 66 c 0
533 -20 m 0
 392 -20 235 17 146 49 c 1
 -155 1352 l 1
 -298 1376 l 1
 -308 1421 l 1
 -5 1421 l 1
 73 1085 l 2
 76 1072 79 1058 81 1042 c 2
 93 990 l 2
 102 949 102 939 112 887 c 1
 161 933 242 965 346 965 c 0
 584 965 774 832 851 496 c 0
 867 428 875 364 875 306 c 0
 875 107 775 -20 533 -20 c 0
EndSplineSet
EndChar

StartChar: c
Encoding: 99 99 67
Width: 967
Flags: W
HStem: -20 104<379.723 791.307> 885 80<200.98 525.711>
VStem: -42 176<409.397 822.17>
LayerCount: 2
Fore
SplineSet
584 84 m 0
 686 84 780 100 830 117 c 1
 844 57 l 1
 783 4 656 -20 551 -20 c 0
 277 -20 63 111 -21 477 c 0
 -35 539 -42 594 -42 642 c 0
 -42 896 140 965 316 965 c 0
 420 965 530 950 618 934 c 1
 679 672 l 1
 624 672 l 1
 543 838 l 1
 509 855 432 885 333 885 c 0
 183 885 134 791 134 663 c 0
 134 606 144 542 159 477 c 0
 218 219 335 84 584 84 c 0
EndSplineSet
EndChar

StartChar: d
Encoding: 100 100 68
Width: 1090
Flags: W
HStem: -20 104<352.538 658.564> 0 45<932.04 1002> 883 82<196.881 516.007> 1376 45<254 351.963>
VStem: -43 177<398.77 825.035>
LayerCount: 2
Fore
SplineSet
-19 461 m 0xb8
 -34 524 -43 588 -43 647 c 0
 -43 823 37 965 294 965 c 0
 367 965 452 953 519 940 c 1
 513 955 503 989 495 1020 c 2
 483 1069 l 2
 479 1085 477 1098 474 1108 c 2
 418 1352 l 1
 254 1376 l 1
 244 1421 l 1
 568 1421 l 1
 880 70 l 1
 1002 45 l 1
 1012 0 l 1
 748 0 l 1x78
 720 70 l 1
 668 20 591 -20 477 -20 c 0
 220 -20 55 140 -19 461 c 0xb8
323 883 m 0
 207 883 134 821 134 661 c 0
 134 607 143 540 161 461 c 0
 208 255 302 84 508 84 c 0xb8
 589 84 660 103 702 123 c 1
 530 866 l 1
 473 876 389 883 323 883 c 0
EndSplineSet
EndChar

StartChar: e
Encoding: 101 101 69
Width: 940
Flags: W
HStem: -20 104<356.797 738.462> 473 80<159 544> 885 80<170.901 398.248>
VStem: -46 169<554.773 842.112>
LayerCount: 2
Fore
SplineSet
159 473 m 1
 195 315 258 84 540 84 c 0
 629 84 736 102 783 113 c 1
 796 57 l 1
 754 25 649 -20 515 -20 c 0
 202 -20 52 154 -22 477 c 0
 -39 549 -46 611 -46 664 c 0
 -46 922 130 965 262 965 c 0
 479 965 649 852 718 555 c 2
 737 473 l 1
 159 473 l 1
544 553 m 1
 499 749 431 885 281 885 c 0
 212 885 123 856 123 699 c 0
 123 659 129 611 142 553 c 1
 544 553 l 1
EndSplineSet
EndChar

StartChar: f
Encoding: 102 102 70
Width: 822
Flags: W
HStem: 0 45<123 169.91 529.336 621> 856 89<230 457> 856 41<-98 -60.9418> 1218 21G<376.967 438> 1362 80<161.024 319.953>
VStem: 7 143<1001.69 1354.02>
LayerCount: 2
Fore
SplineSet
229 1362 m 0xbc
 173 1362 150 1332 150 1266 c 0
 150 1224 159 1168 175 1096 c 2
 207 945 l 1
 457 945 l 1xdc
 480 856 l 1xbc
 230 856 l 1xdc
 410 78 l 1
 621 45 l 1
 631 0 l 1
 123 0 l 1
 113 45 l 1
 244 78 l 1
 64 856 l 1
 -98 856 l 1
 -107 897 l 1
 44 944 l 1
 29 1010 l 2
 14 1077 7 1134 7 1182 c 0
 7 1396 140 1442 243 1442 c 0
 299 1442 347 1433 391 1421 c 1
 438 1218 l 1
 389 1218 l 1
 315 1341 l 1
 290 1355 266 1362 229 1362 c 0xbc
EndSplineSet
EndChar

StartChar: g
Encoding: 103 103 71
Width: 1074
Flags: W
HStem: -442 80<370.314 774.249> -6 158<297.61 816.38> 316 75<269.806 526.473> 889 76<178.347 432.143>
VStem: -37 176<546.049 859.055> 135 136<-283.632 -65.0985> 563 172<422.906 738.228> 865 151<-288.619 -55.6438>
LayerCount: 2
Fore
SplineSet
-37 733 m 0xfb
 -37 895 91 965 280 965 c 0
 342 965 432 952 470 940 c 1
 665 1051 l 1
 710 1008 l 1
 605 864 l 1
 697 782 735 633 735 547 c 0
 735 368 583 316 423 316 c 0
 370 316 316 321 267 330 c 1
 234 199 l 1
 244 174 307 152 374 152 c 2
 652 152 l 2
 952 152 1016 -54 1016 -168 c 0
 1016 -296 931 -442 584 -442 c 0
 220 -442 135 -279 135 -178 c 0xf7
 135 -106 186 -49 255 10 c 1
 215 22 104 76 82 174 c 1
 199 352 l 1
 -3 437 -37 658 -37 733 c 0xfb
271 -156 m 0
 271 -270 343 -362 566 -362 c 0
 808 -362 865 -265 865 -178 c 0
 865 -103 830 -6 690 -6 c 2
 326 -6 l 1
 297 -38 271 -95 271 -156 c 0
407 391 m 0
 501 391 563 424 563 535 c 0
 563 565 559 601 549 643 c 0
 512 802 445 889 294 889 c 0
 174 889 139 829 139 743 c 0xfb
 139 713 140 679 148 643 c 256
 193 444 286 391 407 391 c 0
EndSplineSet
EndChar

StartChar: h
Encoding: 104 104 72
Width: 1094
Flags: W
HStem: 0 45<75 129.799 400.732 477 626 684.239 952.187 1021> 848 117<263.602 523.776> 1376 45<-264 -176.789>
LayerCount: 2
Fore
SplineSet
389 848 m 0
 358 848 279 844 171 819 c 1
 344 70 l 1
 477 45 l 1
 487 0 l 1
 75 0 l 1
 65 45 l 1
 178 70 l 1
 -118 1352 l 1
 -264 1376 l 1
 -274 1421 l 1
 32 1421 l 1
 134 980 l 1
 141 940 l 1
 147 916 154 884 154 864 c 1
 226 912 356 965 448 965 c 0
 618 965 719 859 758 688 c 2
 901 70 l 1
 1021 45 l 1
 1031 0 l 1
 626 0 l 1
 616 45 l 1
 735 70 l 1
 595 676 l 2
 575 764 522 848 389 848 c 0
EndSplineSet
EndChar

StartChar: i
Encoding: 105 105 73
Width: 634
Flags: W
HStem: 0 45<91 169.31 472.236 568> 895 45<-89 -9.29184> 1139 217<-42.0184 101.832>
VStem: -81 223<1177.84 1316.43>
LayerCount: 2
Fore
SplineSet
5 1356 m 256
 69 1356 126 1303 139 1247 c 256
 141 1239 142 1230 142 1223 c 0
 142 1173 103 1139 55 1139 c 256
 -1 1139 -64 1185 -78 1247 c 256
 -80 1255 -81 1264 -81 1271 c 0
 -81 1321 -44 1356 5 1356 c 256
401 70 m 1
 568 45 l 1
 578 0 l 1
 91 0 l 1
 81 45 l 1
 235 70 l 1
 50 870 l 1
 -89 895 l 1
 -99 940 l 1
 200 940 l 1
 401 70 l 1
EndSplineSet
EndChar

StartChar: j
Encoding: 106 106 74
Width: 545
Flags: W
HStem: -436 80<106.873 262.731> 895 45<-113 -28.7043> 1139 217<-56.8381 85.2527>
VStem: -97 223<1178.57 1316.22> 277 154<-346.722 3.44531>
LayerCount: 2
Fore
SplineSet
-10 1356 m 0
 53 1356 110 1302 123 1247 c 256
 125 1239 126 1231 126 1223 c 0
 126 1177 93 1139 40 1139 c 0
 -20 1139 -80 1188 -94 1247 c 256
 -96 1255 -97 1263 -97 1272 c 0
 -97 1317 -66 1356 -10 1356 c 0
198 -356 m 0
 259 -356 277 -306 277 -242 c 0
 277 -195 267 -139 256 -90 c 2
 34 870 l 1
 -113 895 l 1
 -123 940 l 1
 184 940 l 1
 410 -39 l 2
 425 -102 431 -155 431 -200 c 0
 431 -402 302 -436 205 -436 c 0
 176 -436 145 -436 56 -418 c 1
 10 -219 l 1
 57 -219 l 1
 109 -328 l 1
 135 -347 165 -356 198 -356 c 0
EndSplineSet
EndChar

StartChar: k
Encoding: 107 107 75
Width: 1117
Flags: W
HStem: 0 45<72 126.799 386.215 447 652 687.875 959.683 1027> 895 45<437 492.751 699.813 759> 1376 45<-266 -179.387>
LayerCount: 2
Fore
SplineSet
252 453 m 1
 542 868 l 1
 437 895 l 1
 427 940 l 1
 759 940 l 1
 769 895 l 1
 658 872 l 1
 453 598 l 1
 919 68 l 1
 1027 45 l 1
 1037 0 l 1
 652 0 l 1
 642 45 l 1
 722 70 l 1
 370 475 l 1
 279 340 l 1
 341 70 l 1
 447 45 l 1
 457 0 l 1
 72 0 l 1
 62 45 l 1
 175 70 l 1
 -121 1352 l 1
 -266 1376 l 1
 -276 1421 l 1
 29 1421 l 1
 252 453 l 1
EndSplineSet
EndChar

StartChar: l
Encoding: 108 108 76
Width: 600
Flags: W
HStem: 0 45<56 134.31 437.236 533> 1376 45<-262 -162.843>
LayerCount: 2
Fore
SplineSet
366 70 m 1
 533 45 l 1
 543 0 l 1
 56 0 l 1
 46 45 l 1
 200 70 l 1
 -96 1352 l 1
 -262 1376 l 1
 -272 1421 l 1
 54 1421 l 1
 366 70 l 1
EndSplineSet
EndChar

StartChar: m
Encoding: 109 109 77
Width: 1655
Flags: W
HStem: 0 45<78 132.799 409.704 494 613 679.268 964.704 1049 1169 1235.84 1513.17 1586> 842 123<268.857 524.774 818.266 1090.8> 895 45<-129 -57.32>
LayerCount: 2
Fore
SplineSet
597 670 m 2xc0
 572 781 501 842 388 842 c 0xc0
 318 842 234 826 217 822 c 2
 175 813 l 1
 347 70 l 1
 494 45 l 1
 504 0 l 1
 78 0 l 1
 68 45 l 1
 181 70 l 1
 -4 870 l 1
 -129 895 l 1
 -139 940 l 1
 136 940 l 1xa0
 162 864 l 1
 181 876 322 965 445 965 c 0
 480 965 608 960 685 856 c 1
 766 908 912 965 1012 965 c 0
 1156 965 1270 888 1316 688 c 2
 1459 70 l 1
 1586 45 l 1
 1596 0 l 1
 1169 0 l 1
 1159 45 l 1
 1293 70 l 1
 1154 670 l 2
 1122 808 1052 842 966 842 c 0
 927 842 820 829 764 818 c 1
 715 807 l 1
 734 771 749 731 759 688 c 2
 902 70 l 1
 1049 45 l 1
 1059 0 l 1
 613 0 l 1
 603 45 l 1
 736 70 l 1
 597 670 l 2xc0
EndSplineSet
EndChar

StartChar: n
Encoding: 110 110 78
Width: 1088
Flags: W
HStem: 0 45<80 131.358 399.732 476 621 679.239 947.187 1016> 848 117<262.601 517.314> 895 45<-127 -58.7606>
LayerCount: 2
Fore
SplineSet
591 670 m 2xc0
 571 757 517 848 384 848 c 0xc0
 340 848 262 839 212 828 c 2
 170 819 l 1
 343 70 l 1
 476 45 l 1
 486 0 l 1
 80 0 l 1
 70 45 l 1
 177 70 l 1
 -8 870 l 1
 -127 895 l 1
 -137 940 l 1
 131 940 l 1xa0
 158 864 l 1
 235 915 353 965 443 965 c 0
 613 965 714 859 753 688 c 2
 896 70 l 1
 1016 45 l 1
 1026 0 l 1
 621 0 l 1
 611 45 l 1
 730 70 l 1
 591 670 l 2xc0
EndSplineSet
EndChar

StartChar: o
Encoding: 111 111 79
Width: 1023
Flags: W
HStem: -20 79<362.621 630.492> 885 80<183.181 464.096>
VStem: -43 173<417.099 834.185> 696 176<118.046 539.277>
LayerCount: 2
Fore
SplineSet
303 965 m 0
 562 965 767 828 848 475 c 0
 863 408 872 347 872 293 c 0
 872 94 765 -20 523 -20 c 0
 181 -20 37 230 -20 475 c 0
 -34 536 -43 596 -43 652 c 0
 -43 827 40 965 303 965 c 0
504 59 m 0
 646 59 696 143 696 271 c 0
 696 331 685 400 668 475 c 0
 614 712 522 885 314 885 c 0
 180 885 130 815 130 689 c 0
 130 630 141 558 160 475 c 0
 220 218 306 59 504 59 c 0
EndSplineSet
EndChar

StartChar: p
Encoding: 112 112 80
Width: 1014
Flags: W
HStem: -436 47<138 194.499 473.453 575> -20 79<317.898 623.336> 860 105<158.134 468.364> 895 45<-158 -93.2013>
VStem: 684 176<115.772 544.415>
LayerCount: 2
Fore
SplineSet
315 0 m 1xe8
 319 -11 333 -54 347 -111 c 2
 405 -365 l 1
 575 -389 l 1
 586 -436 l 1
 138 -436 l 1
 127 -389 l 1
 240 -365 l 1
 -45 870 l 1
 -158 895 l 1
 -168 940 l 1
 96 940 l 1xd8
 111 885 l 1
 158 936 256 965 348 965 c 0
 621 965 776 747 837 481 c 0
 852 417 860 357 860 301 c 0
 860 110 765 -20 535 -20 c 0
 449 -20 371 -11 315 0 c 1xe8
502 59 m 0
 614 59 684 120 684 278 c 0
 684 333 676 400 657 481 c 0
 610 684 519 860 317 860 c 0xe8
 229 860 162 842 130 827 c 1
 303 76 l 1
 384 61 463 59 502 59 c 0
EndSplineSet
EndChar

StartChar: q
Encoding: 113 113 81
Width: 1088
Flags: W
HStem: -436 47<699 750.306 1021.29 1087> -20 104<350.78 669.698> 883 82<195.064 518.576>
VStem: -46 176<402.184 821.06>
LayerCount: 2
Fore
SplineSet
714 58 m 1
 665 10 592 -20 474 -20 c 0
 194 -20 43 176 -24 467 c 0
 -39 531 -46 591 -46 646 c 0
 -46 840 52 965 287 965 c 0
 360 965 449 953 516 940 c 1
 596 985 l 1
 666 985 l 1
 977 -365 l 1
 1087 -389 l 1
 1098 -436 l 1
 699 -436 l 1
 688 -389 l 1
 801 -363 l 1
 801 -363 722 18 714 58 c 1
320 883 m 0
 238 883 130 852 130 659 c 0
 130 608 138 544 156 467 c 0
 222 183 349 84 505 84 c 0
 586 84 668 101 700 117 c 1
 527 866 l 1
 470 876 386 883 320 883 c 0
EndSplineSet
EndChar

StartChar: r
Encoding: 114 114 82
Width: 799
Flags: W
HStem: 0 45<78 132.799 418.236 514> 821 144<318.55 410> 895 45<-129 -57.32>
VStem: -139 676
LayerCount: 2
Fore
SplineSet
171 821 m 1xd0
 222 872 368 965 463 965 c 2
 478 965 l 1
 537 711 l 1
 494 711 l 1
 410 821 l 1xd0
 339 821 241 801 185 772 c 1
 347 70 l 1
 514 45 l 1
 524 0 l 1
 78 0 l 1
 68 45 l 1
 181 70 l 1
 -4 870 l 1
 -129 895 l 1
 -139 940 l 1
 135 940 l 1xb0
 171 821 l 1xd0
EndSplineSet
EndChar

StartChar: s
Encoding: 115 115 83
Width: 854
Flags: W
HStem: -20 79<239.094 534.886> 885 80<123.243 401.407>
VStem: -44 143<666.755 863.649> 564 149<87.2001 303.774>
LayerCount: 2
Fore
SplineSet
236 885 m 0
 131 885 99 833 99 777 c 0
 99 764 101 750 104 737 c 0
 114 694 140 625 296 576 c 2
 393 545 l 2
 531 501 662 442 703 264 c 0
 709 239 713 212 713 184 c 0
 713 84 658 -20 419 -20 c 0
 297 -20 158 13 119 27 c 1
 65 258 l 1
 112 258 l 1
 192 127 l 1
 239 92 311 59 402 59 c 0
 486 59 564 84 564 175 c 0
 564 190 562 207 558 225 c 0
 550 262 525 349 365 398 c 2
 268 428 l 2
 130 470 4 524 -36 698 c 0
 -42 723 -44 745 -44 766 c 0
 -44 902 67 965 215 965 c 0
 254 965 321 964 480 934 c 1
 528 729 l 1
 481 729 l 1
 414 838 l 1
 357 879 269 885 236 885 c 0
EndSplineSet
EndChar

StartChar: t
Encoding: 116 116 84
Width: 729
Flags: W
HStem: -20 104<368.618 597.608> 856 84<177 373>
VStem: 46 63<1096.45 1153>
LayerCount: 2
Fore
SplineSet
615 35 m 1
 584 11 500 -20 405 -20 c 0
 252 -20 188 91 164 197 c 2
 11 856 l 1
 -112 856 l 1
 -122 901 l 1
 -8 940 l 1
 46 1153 l 1
 109 1153 l 1
 158 940 l 1
 373 940 l 1
 392 856 l 1
 177 856 l 1
 325 215 l 2
 351 106 420 84 463 84 c 0
 477 84 521 84 600 100 c 1
 615 35 l 1
EndSplineSet
EndChar

StartChar: u
Encoding: 117 117 85
Width: 1060
Flags: W
HStem: -20 116<326.23 591.763> 0 45<914.32 986> 895 45<-173 -100.747 363 447.869>
LayerCount: 2
Fore
SplineSet
399 -20 m 0xa0
 255 -20 141 57 95 256 c 2
 -47 870 l 1
 -173 895 l 1
 -183 940 l 1
 103 940 l 1
 258 268 l 2
 290 130 372 96 458 96 c 0xa0
 540 96 619 108 683 127 c 1
 511 870 l 1
 363 895 l 1
 353 940 l 1
 660 940 l 1
 861 70 l 1
 986 45 l 1
 996 0 l 1
 722 0 l 1x60
 694 76 l 1
 620 29 490 -20 399 -20 c 0xa0
EndSplineSet
EndChar

StartChar: v
Encoding: 118 118 86
Width: 1074
Flags: W
HStem: 895 45<-197 -138.509 165.603 231 479 567.883 768.973 817>
LayerCount: 2
Fore
SplineSet
742 874 m 1
 572 -20 l 1
 498 -20 l 1
 -95 870 l 1
 -197 895 l 1
 -207 940 l 1
 231 940 l 1
 241 895 l 1
 99 868 l 1
 522 219 l 1
 634 870 l 1
 479 895 l 1
 469 940 l 1
 817 940 l 1
 827 895 l 1
 742 874 l 1
EndSplineSet
EndChar

StartChar: w
Encoding: 119 119 87
Width: 1521
Flags: W
HStem: 895 45<-196 -127.761 173.887 243 916 1007.75 1206.42 1264>
LayerCount: 2
Fore
SplineSet
1175 874 m 1
 1067 -20 l 1
 989 -20 l 1
 613 600 l 1
 528 -20 l 1
 454 -20 l 1
 -77 870 l 1
 -196 895 l 1
 -206 940 l 1
 243 940 l 1
 253 895 l 1
 104 868 l 1
 473 233 l 1
 559 846 l 1
 643 846 l 1
 1011 229 l 1
 1076 870 l 1
 916 895 l 1
 906 940 l 1
 1264 940 l 1
 1274 895 l 1
 1175 874 l 1
EndSplineSet
EndChar

StartChar: x
Encoding: 120 120 88
Width: 1109
Flags: W
HStem: 0 45<61 145.08 297.523 389 616 680.173 953.493 1032> 895 45<-111 -43.9075 252.346 305 450 527.414 717.685 778>
LayerCount: 2
Fore
SplineSet
917 66 m 1
 1032 45 l 1
 1042 0 l 1
 616 0 l 1
 606 45 l 1
 725 68 l 1
 431 401 l 1
 255 66 l 1
 389 45 l 1
 399 0 l 1
 61 0 l 1
 51 45 l 1
 156 61 l 1
 371 469 l 1
 6 870 l 1
 -111 895 l 1
 -121 940 l 1
 305 940 l 1
 315 895 l 1
 197 868 l 1
 440 598 l 1
 585 870 l 1
 450 895 l 1
 440 940 l 1
 778 940 l 1
 788 895 l 1
 685 874 l 1
 500 532 l 1
 917 66 l 1
EndSplineSet
EndChar

StartChar: y
Encoding: 121 121 89
Width: 1047
Flags: W
HStem: -442 102<183.923 382.03> 895 45<-191 -132.509 170.134 235 450 537.736 736.512 790>
LayerCount: 2
Fore
SplineSet
292 -442 m 0
 238 -442 197 -438 134 -424 c 1
 87 -221 l 1
 134 -221 l 1
 189 -317 l 1
 214 -332 243 -340 280 -340 c 0
 391 -340 438 -242 463 -82 c 1
 472 -10 l 1
 -89 870 l 1
 -191 895 l 1
 -201 940 l 1
 235 940 l 1
 245 895 l 1
 104 868 l 1
 509 211 l 1
 603 870 l 1
 450 895 l 1
 440 940 l 1
 790 940 l 1
 800 895 l 1
 707 874 l 1
 556 -59 l 2
 519 -281 474 -442 292 -442 c 0
EndSplineSet
EndChar

StartChar: z
Encoding: 122 122 90
Width: 994
Flags: W
HStem: 0 80<291 759.103> 860 80<19.9747 411>
VStem: -28 47<690 751.793> 769 47<231.103 324>
LayerCount: 2
Fore
SplineSet
94 0 m 1
 84 45 l 1
 411 860 l 1
 190 860 l 2
 110 860 39 845 19 825 c 1
 19 690 l 1
 -28 690 l 1
 -86 940 l 1
 608 940 l 1
 619 891 l 1
 291 80 l 1
 566 80 l 2
 625 80 732 95 769 127 c 1
 769 324 l 1
 816 324 l 1
 866 0 l 1
 94 0 l 1
EndSplineSet
EndChar

StartChar: braceleft
Encoding: 123 123 91
Width: 729
Flags: W
HStem: -256 42<547.375 688> 488 41<-23 60.6173> 1227 42<219.345 346>
VStem: 39 144<885.211 1211.04> 122 147<557.815 889.602>
CounterMasks: 1 e0
LayerCount: 2
Fore
SplineSet
437 -20 m 2xe8
 471 -170 542 -214 633 -214 c 2
 688 -214 l 1
 698 -256 l 1
 577 -256 l 2
 415 -256 317 -147 281 8 c 2
 220 274 l 2
 187 414 108 488 -23 488 c 1
 -32 529 l 1
 87 529 122 589 122 663 c 0xe8
 122 688 118 715 112 741 c 2
 51 1006 l 2
 44 1038 39 1070 39 1100 c 0
 39 1193 83 1269 225 1269 c 2
 346 1269 l 1
 356 1227 l 1
 301 1227 l 2
 230 1227 183 1200 183 1116 c 0xf0
 183 1093 186 1065 194 1033 c 2
 262 736 l 2
 267 715 269 694 269 675 c 0
 269 591 223 529 142 511 c 1
 143 508 l 1
 253 483 340 400 367 280 c 2
 437 -20 l 2xe8
EndSplineSet
EndChar

StartChar: bar
Encoding: 124 124 92
Width: 321
Flags: W
VStem: -177 478
LayerCount: 2
Fore
SplineSet
160 -303 m 1
 -177 1158 l 1
 -36 1158 l 1
 301 -303 l 1
 160 -303 l 1
EndSplineSet
EndChar

StartChar: braceright
Encoding: 125 125 93
Width: 729
Flags: W
HStem: -256 42<149 276.505> 488 41<432.329 517> 1227 42<-193 -48.3823>
VStem: 224 149<124.844 458.508> 313 142<-196.728 124.844>
CounterMasks: 1 e0
LayerCount: 2
Fore
SplineSet
444 8 m 2xf0
 451 -24 455 -54 455 -81 c 0
 455 -187 399 -256 271 -256 c 2
 149 -256 l 1
 139 -214 l 1
 194 -214 l 2
 266 -214 313 -187 313 -102 c 0xe8
 313 -79 309 -52 302 -20 c 2
 232 280 l 2
 227 302 224 324 224 343 c 0
 224 429 271 488 352 508 c 1
 351 511 l 1
 242 533 154 621 127 736 c 2
 59 1033 l 2
 24 1183 -47 1227 -138 1227 c 2
 -193 1227 l 1
 -203 1269 l 1
 -81 1269 l 2
 106 1269 184 1136 214 1006 c 2
 275 741 l 2
 299 636 359 529 517 529 c 1
 526 488 l 1
 407 488 373 427 373 354 c 0
 373 328 377 301 383 274 c 2
 444 8 l 2xf0
EndSplineSet
EndChar

StartChar: asciitilde
Encoding: 126 126 94
Width: 1072
Flags: W
HStem: 452 92<503.067 694.986> 669 93<86.3311 293.418>
VStem: -29 94<453.641 649.905> 714 98<557.879 762>
LayerCount: 2
Fore
SplineSet
806 762 m 1
 806 730 812 700 812 669 c 0
 812 552 778 452 636 452 c 0
 471 452 299 669 178 669 c 0
 92 669 65 611 65 542 c 0
 65 513 70 482 77 452 c 1
 -14 452 l 1
 -23 492 -29 532 -29 569 c 0
 -29 678 19 762 156 762 c 0
 201 762 268 750 406 653 c 1
 482 601 l 2
 557 551 590 544 614 544 c 0
 704 544 714 607 714 762 c 1
 806 762 l 1
EndSplineSet
EndChar

StartChar: sterling
Encoding: 163 163 95
Width: 916
Flags: W
HStem: 0 112<100 163.914 254 778> 477 97<5 105 251 516> 996 87<183.388 464.949>
VStem: 5 144<716.03 963.216> 196 80<143.936 432.015>
LayerCount: 2
Fore
SplineSet
254 112 m 1
 325 112 764 117 778 117 c 1
 794 0 l 1
 100 0 l 1
 100 105 l 1
 164 115 196 212 196 280 c 0
 196 293 195 304 193 314 c 0
 188 332 159 416 145 477 c 1
 5 477 l 1
 5 574 l 1
 105 574 l 1
 60 682 27 771 11 840 c 0
 7 857 5 873 5 888 c 0
 5 1004 109 1083 278 1083 c 0
 357 1083 472 1064 588 1029 c 1
 643 792 l 1
 583 792 l 1
 530 906 l 1
 480 956 399 996 330 996 c 2
 320 996 l 1
 190 996 149 936 149 864 c 0
 149 832 157 798 169 766 c 1
 201 623 l 2
 207 598 212 578 213 574 c 1
 516 574 l 1
 516 477 l 1
 251 477 l 1
 267 406 276 324 276 254 c 0
 276 191 269 138 254 112 c 1
EndSplineSet
EndChar

StartChar: sheva
Encoding: 1456 1456 126
Width: 0
VWidth: 1761
GlyphClass: 4
Flags: W
AnchorPoint: "M2V" -171 0 basemark 0
AnchorPoint: "N" -1 0 mark 0
LayerCount: 2
Fore
SplineSet
13 -166 m 2
 26 -149 42 -149 63 -165 c 2
 127 -217 l 2
 147 -234 152 -250 139 -266 c 2
 98 -320 l 2
 86 -336 69 -335 49 -319 c 2
 -15 -267 l 2
 -35 -250 -40 -234 -28 -218 c 2
 13 -166 l 2
69 -405 m 2
 82 -389 98 -388 117 -404 c 2
 183 -457 l 2
 203 -473 207 -489 194 -505 c 2
 153 -559 l 2
 140 -575 125 -575 105 -559 c 2
 40 -506 l 2
 19 -490 15 -474 29 -458 c 2
 69 -405 l 2
EndSplineSet
MultipleSubs2: "meteg-tenua-stage2" sheva meteg
LCarets2: 1 0 
Ligature2: "meteg-tenua-stage1" meteg sheva
EndChar

StartChar: hatafsegol
Encoding: 1457 1457 127
Width: 0
VWidth: 1761
GlyphClass: 4
Flags: W
AnchorPoint: "VR" -95 0 mark 0
AnchorPoint: "M2V" -395 0 basemark 0
AnchorPoint: "H" 0 0 mark 0
LayerCount: 2
Fore
SplineSet
236 -166 m 2
 249 -149 266 -149 286 -165 c 2
 350 -217 l 2
 370 -233 373 -249 361 -265 c 2
 320 -319 l 2
 307 -335 292 -335 272 -319 c 2
 208 -267 l 2
 188 -250 183 -234 195 -218 c 2
 236 -166 l 2
292 -406 m 1
 305 -389 321 -388 340 -404 c 2
 406 -457 l 2
 425 -474 430 -490 418 -506 c 2
 376 -560 l 2
 364 -576 348 -575 327 -559 c 2
 262 -506 l 2
 242 -490 238 -474 251 -458 c 1
 292 -406 l 1
-210 -165 m 1
 -198 -149 -182 -148 -161 -164 c 2
 -96 -217 l 2
 -76 -234 -73 -250 -86 -266 c 2
 -125 -319 l 2
 -139 -335 -154 -335 -174 -319 c 2
 -240 -266 l 2
 -260 -249 -263 -234 -251 -217 c 1
 -210 -165 l 1
29 -164 m 2
 42 -148 57 -148 78 -164 c 2
 143 -217 l 2
 163 -234 166 -249 154 -266 c 2
 113 -318 l 2
 101 -334 85 -335 65 -319 c 2
 0 -266 l 2
 -20 -249 -23 -233 -11 -217 c 2
 29 -164 l 2
-32 -406 m 2
 -20 -390 -3 -389 17 -405 c 2
 82 -458 l 2
 102 -474 105 -491 93 -506 c 2
 52 -560 l 2
 39 -576 24 -576 4 -560 c 2
 -61 -507 l 2
 -82 -491 -85 -475 -72 -459 c 2
 -32 -406 l 2
EndSplineSet
LCarets2: 1 0 
MultipleSubs2: "meteg-tenua-stage2" hatafsegol meteg
Ligature2: "meteg-tenua-stage1" meteg hatafsegol
EndChar

StartChar: hatafpatah
Encoding: 1458 1458 128
Width: 0
VWidth: 1761
GlyphClass: 4
Flags: W
HStem: -287 109<-246.078 89.9495>
VStem: -248 665
AnchorPoint: "VR" -95.4463 0 mark 0
AnchorPoint: "M2V" -395 0 basemark 0
AnchorPoint: "H" -0.446289 0 mark 0
LayerCount: 2
Fore
SplineSet
-236 -287 m 2
 -245 -287 -249 -283 -248 -274 c 2
 -245 -193 l 2
 -245 -184 -240 -178 -232 -178 c 2
 78 -178 l 2
 88 -178 93 -184 93 -193 c 2
 90 -274 l 2
 89 -283 83 -287 74 -287 c 2
 -236 -287 l 2
235 -166 m 1
 248 -148 265 -149 285 -165 c 1
 350 -217 l 2
 370 -234 375 -250 362 -266 c 2
 321 -320 l 2
 309 -336 291 -335 272 -319 c 2
 208 -267 l 2
 187 -250 183 -234 195 -218 c 2
 235 -166 l 1
292 -405 m 2
 305 -389 321 -388 340 -404 c 2
 406 -457 l 2
 425 -473 429 -489 417 -505 c 2
 375 -559 l 2
 363 -575 348 -575 327 -559 c 2
 262 -506 l 2
 242 -490 238 -474 251 -458 c 2
 292 -405 l 2
EndSplineSet
LCarets2: 1 0 
MultipleSubs2: "meteg-tenua-stage2" hatafpatah meteg
Ligature2: "meteg-tenua-stage1" meteg hatafpatah
EndChar

StartChar: hatafqamats
Encoding: 1459 1459 129
Width: 0
VWidth: 1761
GlyphClass: 4
Flags: W
HStem: -294 109<-244.95 -106 -20 90.9495>
VStem: -106 86<-345.279 -294>
AnchorPoint: "VR" -94.75 0 mark 0
AnchorPoint: "M2V" -395 0 basemark 0
AnchorPoint: "H" 0.25 0 mark 0
LayerCount: 2
Fore
SplineSet
-20 -294 m 1
 32 -480 l 2
 33 -487 31 -490 24 -490 c 2
 -62 -490 l 2
 -67 -490 -72 -487 -73 -480 c 2
 -106 -294 l 1
 -235 -294 l 2
 -244 -294 -248 -290 -247 -281 c 2
 -245 -200 l 2
 -244 -191 -239 -185 -231 -185 c 1
 79 -185 l 1
 89 -185 94 -191 93 -200 c 2
 91 -281 l 2
 90 -290 84 -294 75 -294 c 2
 -20 -294 l 1
236 -166 m 1
 249 -149 266 -149 286 -165 c 2
 350 -217 l 2
 370 -233 375 -250 362 -266 c 2
 321 -320 l 2
 309 -336 291 -335 271 -318 c 2
 208 -267 l 2
 188 -250 183 -234 195 -218 c 1
 236 -166 l 1
292 -405 m 2
 305 -389 321 -388 341 -404 c 2
 407 -457 l 2
 426 -473 430 -489 418 -505 c 2
 376 -559 l 2
 364 -575 348 -575 328 -559 c 2
 263 -506 l 2
 243 -490 239 -474 252 -458 c 2
 292 -405 l 2
EndSplineSet
LCarets2: 1 0 
MultipleSubs2: "meteg-tenua-stage2" hatafqamats meteg
Ligature2: "meteg-tenua-stage1" meteg hatafqamats
EndChar

StartChar: hiriq
Encoding: 1460 1460 130
Width: 0
VWidth: 1761
GlyphClass: 4
Flags: W
VStem: -28 167
AnchorPoint: "J1" 286 0 mark 0
AnchorPoint: "M2V" -160.077 0.333008 basemark 0
AnchorPoint: "N" -0.0771484 0.333008 mark 0
LayerCount: 2
Fore
SplineSet
13 -166 m 2
 26 -149 42 -149 63 -165 c 2
 128 -218 l 2
 148 -234 151 -250 139 -266 c 2
 98 -320 l 2
 85 -335 70 -336 50 -320 c 2
 -15 -267 l 2
 -35 -250 -39 -234 -28 -218 c 2
 13 -166 l 2
EndSplineSet
LCarets2: 1 0 
MultipleSubs2: "meteg-tenua-stage2" hiriq meteg
Ligature2: "meteg-tenua-stage1" meteg hiriq
EndChar

StartChar: tsere
Encoding: 1461 1461 131
Width: 0
VWidth: 1761
GlyphClass: 4
Flags: W
VStem: -147 405
AnchorPoint: "VR" -95.2305 1 mark 0
AnchorPoint: "M2V" -290 0 basemark 0
AnchorPoint: "W" 0 0 mark 0
LayerCount: 2
Fore
SplineSet
-106 -165 m 2
 -94 -149 -78 -148 -57 -164 c 2
 8 -217 l 2
 28 -234 31 -250 18 -266 c 2
 -21 -319 l 2
 -35 -335 -50 -335 -70 -319 c 2
 -136 -266 l 2
 -156 -249 -159 -234 -147 -217 c 2
 -106 -165 l 2
133 -164 m 1
 146 -148 161 -148 182 -164 c 2
 247 -217 l 2
 267 -234 270 -249 258 -266 c 2
 217 -318 l 2
 205 -334 189 -335 169 -319 c 2
 103 -266 l 2
 83 -249 81 -233 93 -217 c 1
 133 -164 l 1
EndSplineSet
LCarets2: 1 0 
MultipleSubs2: "meteg-tenua-stage2" tsere meteg
Ligature2: "meteg-tenua-stage1" meteg tsere
EndChar

StartChar: segol
Encoding: 1462 1462 132
Width: 0
VWidth: 1761
GlyphClass: 4
Flags: W
VStem: -147 405
AnchorPoint: "VR" -95.2305 1 mark 0
AnchorPoint: "M2V" -297 0 basemark 0
AnchorPoint: "W" 0 0 mark 0
LayerCount: 2
Fore
SplineSet
-106 -165 m 1
 -94 -149 -78 -148 -57 -164 c 2
 8 -217 l 2
 28 -234 31 -250 18 -266 c 2
 -21 -319 l 2
 -35 -335 -50 -335 -70 -319 c 2
 -136 -266 l 2
 -156 -249 -159 -234 -147 -217 c 1
 -106 -165 l 1
133 -164 m 1
 146 -148 161 -148 182 -164 c 2
 247 -217 l 2
 267 -234 270 -249 258 -266 c 2
 217 -318 l 2
 205 -334 189 -335 169 -319 c 2
 103 -266 l 2
 83 -249 81 -233 93 -217 c 1
 133 -164 l 1
72 -406 m 2
 84 -390 101 -389 121 -405 c 2
 186 -458 l 2
 206 -474 209 -491 197 -506 c 2
 156 -560 l 2
 143 -576 128 -576 108 -560 c 2
 43 -507 l 2
 22 -491 19 -475 32 -459 c 2
 72 -406 l 2
EndSplineSet
LCarets2: 1 0 
MultipleSubs2: "meteg-tenua-stage2" segol meteg
Ligature2: "meteg-tenua-stage1" meteg segol
EndChar

StartChar: patah
Encoding: 1463 1463 133
Width: 0
VWidth: 1761
GlyphClass: 4
Flags: W
HStem: -279 109<-117.078 218.949>
VStem: -119 341
AnchorPoint: "VR" -95.2305 1 mark 0
AnchorPoint: "M2V" -260 0 basemark 0
AnchorPoint: "W" 0 0 mark 0
LayerCount: 2
Fore
SplineSet
-107 -279 m 2
 -116 -279 -120 -275 -119 -266 c 2
 -116 -185 l 2
 -115 -176 -111 -170 -103 -170 c 1
 207 -170 l 1
 217 -170 223 -176 222 -185 c 2
 219 -266 l 2
 218 -275 212 -279 203 -279 c 2
 -107 -279 l 2
EndSplineSet
LCarets2: 1 0 
MultipleSubs2: "meteg-tenua-stage2" patah meteg
Ligature2: "meteg-tenua-stage1" meteg patah
EndChar

StartChar: qamats
Encoding: 1464 1464 134
Width: 0
VWidth: 1761
GlyphClass: 4
Flags: W
HStem: -279 109<-117.078 22 108 218.949>
VStem: 22 86<-330.279 -279>
AnchorPoint: "VR" -95.2305 1 mark 0
AnchorPoint: "M2V" -260 0 basemark 0
AnchorPoint: "W" 0 0 mark 0
LayerCount: 2
Fore
SplineSet
108 -279 m 1
 160 -465 l 2
 162 -472 160 -475 153 -475 c 2
 67 -475 l 2
 62 -475 57 -472 55 -465 c 2
 22 -279 l 1
 -107 -279 l 2
 -116 -279 -120 -275 -119 -266 c 2
 -116 -185 l 2
 -115 -176 -111 -170 -103 -170 c 1
 207 -170 l 1
 217 -170 223 -176 222 -185 c 2
 219 -266 l 2
 218 -275 212 -279 203 -279 c 2
 108 -279 l 1
EndSplineSet
LCarets2: 1 0 
MultipleSubs2: "meteg-tenua-stage2" qamats meteg
Ligature2: "meteg-tenua-stage1" meteg qamats
EndChar

StartChar: holam
Encoding: 1465 1465 135
Width: 0
VWidth: 1761
GlyphClass: 4
Flags: W
VStem: -388 167
AnchorPoint: "Holam" 0 0 mark 0
LayerCount: 2
Fore
SplineSet
-347 1395 m 2
 -334 1412 -318 1412 -299 1397 c 2
 -232 1343 l 2
 -212 1327 -210 1311 -221 1295 c 2
 -263 1241 l 2
 -275 1226 -291 1225 -311 1241 c 2
 -377 1295 l 2
 -396 1311 -399 1327 -388 1343 c 2
 -347 1395 l 2
EndSplineSet
EndChar

StartChar: qubuts
Encoding: 1467 1467 136
Width: 0
VWidth: 1761
GlyphClass: 4
Flags: W
VStem: -165 495
AnchorPoint: "M2V" -368 1 basemark 0
AnchorPoint: "W" -142.538 -2 mark 0
LayerCount: 2
Fore
SplineSet
-128 -165 m 2
 -117 -149 -102 -149 -83 -163 c 2
 -25 -211 l 2
 -7 -226 -4 -240 -15 -255 c 2
 -52 -303 l 2
 -63 -317 -78 -318 -96 -303 c 2
 -154 -255 l 2
 -173 -240 -175 -226 -165 -212 c 2
 -128 -165 l 2
43 -294 m 2
 54 -279 69 -278 88 -293 c 2
 145 -340 l 2
 164 -355 167 -370 156 -384 c 2
 119 -433 l 2
 108 -446 93 -447 75 -432 c 2
 17 -385 l 2
 -2 -370 -4 -355 6 -341 c 2
 43 -294 l 2
217 -429 m 2
 229 -414 243 -413 262 -428 c 2
 320 -475 l 2
 338 -490 342 -505 330 -519 c 2
 293 -568 l 2
 282 -581 267 -582 249 -567 c 2
 191 -520 l 2
 173 -505 170 -490 180 -477 c 2
 217 -429 l 2
EndSplineSet
LCarets2: 1 0 
MultipleSubs2: "meteg-tenua-stage2" qubuts meteg
Ligature2: "meteg-tenua-stage1" meteg qubuts
EndChar

StartChar: dagesh
Encoding: 1468 1468 137
Width: 0
VWidth: 1761
GlyphClass: 4
Flags: W
VStem: -195 148
AnchorPoint: "D" 0 0 mark 0
LayerCount: 2
Fore
SplineSet
-159 592 m 2
 -148 607 -134 607 -115 592 c 2
 -57 545 l 2
 -38 530 -35 516 -47 501 c 2
 -83 454 l 2
 -95 440 -108 440 -127 455 c 2
 -185 503 l 2
 -203 517 -207 531 -195 545 c 2
 -159 592 l 2
EndSplineSet
EndChar

StartChar: meteg
Encoding: 1469 1469 138
Width: 0
VWidth: 1761
GlyphClass: 4
Flags: W
HStem: -540 370
VStem: 0 165
AnchorPoint: "M1" 0 0 mark 0
AnchorPoint: "N" 0 0 mark 0
AnchorPoint: "M2V" 55 0 mark 0
LayerCount: 2
Fore
SplineSet
0 -232 m 1
 -1 -229 2 -225 10 -220 c 1
 80 -170 l 2
 87 -165 95 -174 97 -182 c 2
 165 -479 l 1
 165 -484 161 -488 153 -493 c 1
 84 -540 l 2
 77 -545 69 -535 66 -526 c 2
 0 -232 l 1
EndSplineSet
Ligature2: "'ccmp' Remove empty near meteg" empty meteg
Ligature2: "'ccmp' Remove empty near meteg" meteg empty
LCarets2: 1 0 
EndChar

StartChar: makaf
Encoding: 1470 1470 139
Width: 661
VWidth: 1761
Flags: W
HStem: 818 163<-127.903 375.901>
VStem: -131 510
LayerCount: 2
Fore
SplineSet
-114 818 m 2
 -127 818 -133 824 -131 837 c 2
 -128 958 l 2
 -126 972 -119 981 -107 981 c 1
 358 981 l 1
 373 981 381 972 379 958 c 2
 376 837 l 2
 374 824 365 818 351 818 c 2
 -114 818 l 2
EndSplineSet
EndChar

StartChar: rafe
Encoding: 1471 1471 140
Width: 0
VWidth: 1761
GlyphClass: 4
Flags: W
HStem: 1193 109<-456.035 -120.05>
VStem: -458 341
AnchorPoint: "R" 0 0 mark 0
LayerCount: 2
Fore
SplineSet
-445 1193 m 2
 -454 1193 -459 1198 -458 1207 c 2
 -455 1287 l 2
 -454 1296 -450 1302 -442 1302 c 1
 -132 1302 l 1
 -122 1302 -116 1296 -117 1287 c 2
 -120 1207 l 2
 -121 1198 -126 1193 -135 1193 c 2
 -445 1193 l 2
EndSplineSet
Substitution2: "'salt' Stylistic Alternatives lookup-1" varika
EndChar

StartChar: shindot
Encoding: 1473 1473 142
Width: 0
VWidth: 1761
GlyphClass: 4
Flags: W
VStem: -374 168
LayerCount: 2
Fore
SplineSet
-333 1332 m 2
 -319 1349 -303 1349 -283 1333 c 2
 -218 1280 l 2
 -198 1264 -195 1248 -206 1232 c 2
 -248 1178 l 2
 -260 1163 -276 1162 -296 1178 c 2
 -361 1231 l 2
 -381 1248 -385 1264 -374 1280 c 2
 -333 1332 l 2
EndSplineSet
EndChar

StartChar: sindot
Encoding: 1474 1474 143
Width: 0
VWidth: 1761
GlyphClass: 4
Flags: W
VStem: -374 168
LayerCount: 2
Fore
SplineSet
-333 1332 m 2
 -319 1349 -303 1349 -283 1333 c 2
 -218 1280 l 2
 -198 1264 -195 1248 -206 1232 c 2
 -248 1178 l 2
 -260 1163 -276 1162 -296 1178 c 2
 -361 1231 l 2
 -381 1248 -385 1264 -374 1280 c 2
 -333 1332 l 2
EndSplineSet
EndChar

StartChar: sofpasuq
Encoding: 1475 1475 144
Width: 471
VWidth: 1761
Flags: W
VStem: -103 429
LayerCount: 2
Fore
SplineSet
127 297 m 2
 136 310 148 316 160 316 c 0
 172 316 186 310 201 298 c 2
 299 219 l 2
 314 207 323 195 326 183 c 0
 329 171 325 159 316 147 c 2
 254 66 l 2
 245 54 234 48 222 48 c 0
 210 48 197 54 182 66 c 2
 84 146 l 2
 70 158 61 171 58 183 c 0
 55 195 58 207 65 219 c 2
 96 260 l 1
 127 297 l 2
-31 992 m 2
 -22 1005 -9 1011 3 1011 c 0
 15 1011 30 1005 45 993 c 2
 142 914 l 2
 157 902 166 890 168 878 c 0
 171 866 168 854 159 842 c 2
 97 760 l 2
 87 748 77 742 65 742 c 0
 53 742 39 748 25 760 c 2
 -74 840 l 2
 -89 852 -100 866 -103 878 c 0
 -105 890 -100 902 -92 914 c 2
 -60 954 l 1
 -31 992 l 2
EndSplineSet
EndChar

StartChar: alef
Encoding: 1488 1488 146
Width: 1228
VWidth: 1761
Flags: W
HStem: 0 162<210.609 317.194> 864 185<940.169 1032.74>
VStem: 274 132<361.244 646.876> 853 92<548.035 815.158>
AnchorPoint: "R" 816 0 basechar 0
AnchorPoint: "VR" 810.148 0 basechar 0
AnchorPoint: "Holam" 355.148 0 basechar 0
AnchorPoint: "N" 814.148 0 basechar 0
AnchorPoint: "W" 810.148 0 basechar 0
AnchorPoint: "H" 810.148 0 basechar 0
LayerCount: 2
Fore
SplineSet
847 768 m 0
 835 850 804 839 804 860 c 1
 765 1016 l 2
 758 1043 772 1049 800 1049 c 1
 993 1049 l 1
 1019 1049 1030 1046 1030 1017 c 1
 1060 896 l 2
 1068 864 1052 864 1024 864 c 0
 965 864 929 821 929 782 c 0
 929 770 945 730 945 656 c 0
 945 562 919 487 919 456 c 0
 919 434 939 416 957 401 c 0
 1197 195 1202 279 1219 195 c 1
 1259 30 l 2
 1263 15 1224 -17 1203 0 c 0
 883 248 751 346 469 622 c 0
 452 639 441 648 433 648 c 0
 418 648 406 608 406 559 c 0
 406 538 408 515 413 493 c 0
 474 227 539 224 557 164 c 1
 591 34 l 2
 597 12 581 0 553 0 c 2
 234 0 l 2
 219 0 218 13 215 24 c 2
 195 100 l 2
 194 103 194 105 194 107 c 0
 194 141 258 157 271 162 c 2
 387 198 l 1
 331 297 274 412 274 527 c 0
 274 645 327 685 327 716 c 0
 327 733 314 742 295 758 c 10
 238 805 l 18
 231 811 216 838 212 853 c 2
 175 1028 l 2
 174 1031 174 1034 174 1036 c 0
 174 1056 189 1072 207 1072 c 0
 215 1072 225 1068 233 1060 c 2
 727 590 l 2
 754 565 792 546 803 546 c 0
 824 546 853 602 853 695 c 0
 853 717 851 742 847 768 c 0
EndSplineSet
Substitution2: "'jalt' Justification Alternatives lookup -1" alef.wide
EndChar

StartChar: bet
Encoding: 1489 1489 147
Width: 922
VWidth: 2273
Flags: W
HStem: -0 198<219.387 800.005 885.453 997> 860 189<138.241 526.949>
VStem: 57 63<1072.82 1170.66>
AnchorPoint: "R" 642 0 basechar 0
AnchorPoint: "VR" 585.965 0 basechar 0
AnchorPoint: "Holam" 206.621 0 basechar 0
AnchorPoint: "H" 585.965 0 basechar 0
AnchorPoint: "W" 596.965 0 basechar 0
AnchorPoint: "N" 637.965 0 basechar 0
LayerCount: 2
Fore
SplineSet
987 -0 m 2
 272 -0 l 2
 251 -0 227 3 219 31 c 2
 183 165 l 2
 176 192 189 198 217 198 c 2
 755 198 l 2
 800 198 816 202 800 243 c 0
 662 607 636 860 381 860 c 2
 190 860 l 2
 165 860 113 876 107 902 c 2
 57 1132 l 2
 47 1178 86 1180 99 1171 c 0
 109 1164 118 1140 120 1134 c 1
 136 1094 151 1066 175 1049 c 1
 393 1049 l 1
 694 1049 743 858 884 247 c 1
 895 209 891 198 924 198 c 2
 957 198 l 2
 983 198 988 190 995 162 c 2
 1027 32 l 2
 1035 -0 1015 -0 987 -0 c 2
EndSplineSet
EndChar

StartChar: gimel
Encoding: 1490 1490 148
Width: 801
VWidth: 2273
Flags: W
HStem: 0 198<212.699 388.688> 860 189<147.241 345.422>
VStem: 66 63<1072.82 1170.66>
AnchorPoint: "R" 558 50 basechar 0
AnchorPoint: "VR" 559.15 0 basechar 0
AnchorPoint: "Holam" 210.621 0 basechar 0
AnchorPoint: "H" 566.076 -30 basechar 0
AnchorPoint: "W" 536.15 0 basechar 0
AnchorPoint: "N" 556.15 0 basechar 0
LayerCount: 2
Fore
SplineSet
774 -13 m 0
 725 -13 608 143 528 379 c 1
 517 352 l 1
 435 19 456 0 269 0 c 0
 246 0 224 -5 216 31 c 1
 180 165 l 2
 173 192 186 198 214 198 c 2
 264 198 l 2
 432 198 460 339 477 507 c 1
 389 769 382 860 213 860 c 2
 199 860 l 2
 174 860 122 876 116 902 c 2
 66 1132 l 2
 56 1178 95 1180 108 1171 c 0
 118 1164 127 1140 129 1134 c 0
 145 1094 160 1066 184 1049 c 1
 237 1049 l 2
 415 1049 446 1049 489 860 c 0
 602 374 740 267 823 218 c 0
 853 201 864 189 855 168 c 1
 791 95 798 -13 774 -13 c 0
EndSplineSet
EndChar

StartChar: dalet
Encoding: 1491 1491 149
Width: 888
VWidth: 2273
Flags: W
HStem: 860 189<8.241 483.4 635.589 700.528>
VStem: -73 63<1067.93 1170.66>
AnchorPoint: "R" 582 0 basechar 0
AnchorPoint: "VR" 583.805 0 basechar 0
AnchorPoint: "Holam" 88.6211 0 basechar 0
AnchorPoint: "H" 583.805 0 basechar 0
AnchorPoint: "W" 728.805 0 basechar 0
AnchorPoint: "N" 744.805 0 basechar 0
LayerCount: 2
Fore
SplineSet
661 1049 m 1
 687 1049 692 1040 699 1012 c 2
 729 893 l 1
 737 861 716 860 688 860 c 1
 632 860 631 797 631 774 c 1
 631 721 643 673 653 630 c 0
 688 475 759 359 796 200 c 0
 800 184 801 169 801 154 c 0
 801 100 779 54 758 14 c 1
 748 -5 747 -5 728 -10 c 1
 700 -19 l 1
 679 -24 676 -19 672 0 c 1
 624 210 607 295 494 785 c 1
 482 834 460 860 388 860 c 1
 60 860 l 2
 35 860 -17 876 -23 902 c 2
 -73 1132 l 2
 -83 1178 -44 1180 -31 1171 c 0
 -21 1164 -12 1140 -10 1134 c 1
 6 1094 25 1049 45 1049 c 1
 661 1049 l 1
EndSplineSet
Substitution2: "'jalt' Justification Alternatives lookup -1" daled.wide
EndChar

StartChar: he
Encoding: 1492 1492 150
Width: 1160
VWidth: 2273
Flags: W
HStem: -18 21G<284.5 301> 860 189<146.241 797.4 949.013 970.875>
VStem: 65 63<1067.93 1170.66> 255 154<24.2546 363.461>
AnchorPoint: "R" 800 0 basechar 0
AnchorPoint: "VR" 713.621 0 basechar 0
AnchorPoint: "Holam" 216.621 0 basechar 0
AnchorPoint: "H" 713.621 0 basechar 0
AnchorPoint: "W" 710.621 0 basechar 0
AnchorPoint: "N" 710.621 0 basechar 0
LayerCount: 2
Fore
SplineSet
931 1049 m 1
 957 1049 962 1040 969 1012 c 2
 999 893 l 2
 1007 861 982 860 982 860 c 0
 949 860 945 794 945 774 c 1
 945 564 1115 276 1115 154 c 1
 1115 100 1093 54 1072 14 c 0
 1062 -5 1061 -5 1042 -10 c 1
 1014 -18 l 1
 993 -23 990 -19 986 0 c 2
 808 785 l 2
 796 834 774 860 702 860 c 2
 198 860 l 2
 173 860 121 876 115 902 c 2
 65 1132 l 2
 55 1178 94 1180 107 1171 c 0
 117 1164 126 1140 128 1134 c 0
 144 1094 163 1049 183 1049 c 1
 931 1049 l 1
249 648 m 0
 271 658 287 653 295 618 c 2
 317 520 l 2
 337 434 409 277 409 150 c 0
 409 88 391 37 337 0 c 0
 328 -6 310 -18 292 -18 c 0
 277 -18 255 -9 255 42 c 0
 255 416 190 496 190 580 c 0
 190 611 205 628 249 648 c 0
EndSplineSet
Substitution2: "'jalt' Justification Alternatives lookup -1" he.wide
EndChar

StartChar: vav
Encoding: 1493 1493 151
Width: 558
VWidth: 2273
Flags: W
VStem: -46 63<1093.82 1191.66>
AnchorPoint: "D" 281.621 0 basechar 0
AnchorPoint: "Holam_Haser_on_Vav" 121.621 0 basechar 0
AnchorPoint: "VR" 379.453 0 basechar 0
AnchorPoint: "N" 489.453 0 basechar 0
AnchorPoint: "W" 493.453 0 basechar 0
AnchorPoint: "H" 379.453 0 basechar 0
LayerCount: 2
Fore
SplineSet
87 881 m 2
 63 888 10 897 4 923 c 2
 -46 1153 l 2
 -56 1199 -17 1201 -4 1192 c 0
 6 1185 15 1161 17 1155 c 0
 33 1115 48 1087 72 1070 c 1
 311 1024 369 957 392 856 c 0
 397 836 399 829 404 805 c 2
 443 632 l 1
 481 467 583 258 583 158 c 0
 583 104 561 58 540 18 c 0
 530 -1 529 0 510 -6 c 2
 482 -15 l 1
 461 -20 458 -13 454 6 c 2
 278 764 l 2
 267 813 220 843 174 856 c 2
 87 881 l 2
EndSplineSet
EndChar

StartChar: zain
Encoding: 1494 1494 152
Width: 612
VWidth: 2273
Flags: W
VStem: 0 64<1080.26 1170.66>
AnchorPoint: "VR" 450.197 0 basechar 0
AnchorPoint: "Holam" 165.334 0 basechar 0
AnchorPoint: "N" 450.197 0 basechar 0
AnchorPoint: "W" 469.197 0 basechar 0
AnchorPoint: "H" 419.273 4 basechar 0
LayerCount: 2
Fore
SplineSet
349 746 m 2
 349 567 529 306 529 154 c 0
 529 100 507 54 486 14 c 0
 476 -5 475 -4 456 -10 c 2
 428 -19 l 1
 407 -24 404 -19 400 0 c 0
 384 69 382 127 369 180 c 0
 333 338 284 439 254 569 c 0
 209 763 245 801 159 833 c 9
 132 841 l 2
 108 848 55 857 49 883 c 2
 0 1132 l 2
 -9 1178 30 1180 43 1171 c 0
 53 1164 62 1140 64 1134 c 0
 80 1094 104 1066 128 1049 c 9
 396 1002 l 2
 422 997 438 990 445 962 c 2
 477 832 l 2
 485 800 456 795 437 800 c 0
 432 802 407 808 386 808 c 0
 362 808 349 777 349 763 c 2
 349 746 l 2
EndSplineSet
EndChar

StartChar: het
Encoding: 1495 1495 153
Width: 1225
VWidth: 2273
Flags: W
HStem: 860 189<136.535 182.999 339.429 869.4>
VStem: 51 63<1082.88 1170.66>
AnchorPoint: "VR" 757.794 0 basechar 0
AnchorPoint: "Holam" 206.555 0 basechar 0
AnchorPoint: "N" 757.794 0 basechar 0
AnchorPoint: "W" 757.794 0 basechar 0
AnchorPoint: "H" 757.794 0 basechar 0
LayerCount: 2
Fore
SplineSet
327 741 m 0
 327 595 445 290 445 188 c 0
 445 125 421 77 375 10 c 0
 365 -4 362 -8 343 -13 c 1
 314 -17 l 2
 291 -20 291 -15 287 4 c 0
 239 213 260 495 192 789 c 0
 181 838 149 860 132 860 c 1
 132 860 107 876 101 902 c 2
 51 1132 l 2
 41 1178 82 1180 95 1171 c 0
 105 1164 112 1140 114 1134 c 0
 130 1094 159 1066 183 1049 c 9
 995 1049 l 2
 1021 1049 1025 1040 1033 1012 c 2
 1058 921 l 18
 1060 911 1061 903 1061 896 c 0
 1061 853 1017 887 1017 774 c 0
 1017 568 1187 286 1187 154 c 0
 1187 100 1165 54 1144 14 c 0
 1132 -9 1106 -14 1086 -19 c 0
 1065 -24 1062 -19 1058 0 c 2
 880 785 l 2
 868 834 846 860 774 860 c 2
 406 860 l 2
 345 860 327 805 327 741 c 0
EndSplineSet
EndChar

StartChar: tet
Encoding: 1496 1496 154
Width: 1182
Flags: W
HStem: -27 211<553.482 803.619> 820 195<317.045 407.99> 860 218<641.131 827.411>
VStem: 193 107<636.442 819.364> 545 43<708.401 755.167> 957 128<254.982 645.113>
AnchorPoint: "VR" 787.57 0 basechar 0
AnchorPoint: "Holam" 212 0 basechar 0
AnchorPoint: "N" 731.57 0 basechar 0
AnchorPoint: "W" 748.57 0 basechar 0
AnchorPoint: "H" 787.57 0 basechar 0
LayerCount: 2
Fore
SplineSet
441 72 m 1xbc
 360 184 278 311 231 514 c 0
 210 603 193 706 193 828 c 1
 192 836 158 866 135 872 c 1
 82 883 l 1
 41 890 34 900 34 925 c 1
 75 1119 l 2
 81 1143 101 1169 117 1169 c 0
 125 1169 131 1161 132 1155 c 0
 141 1117 165 1082 189 1064 c 9
 370 1015 l 2xdc
 397 1008 408 1009 408 979 c 1
 408 860 l 17xbc
 408 824 412 820 368 820 c 1xdc
 334 820 300 817 300 800 c 1
 366 512 440 324 595 184 c 1
 739 184 818 204 935 258 c 1
 951 281 957 319 957 364 c 0
 957 436 941 525 924 598 c 0
 911 656 897 702 890 720 c 1
 864 793 803 860 722 860 c 1
 643 860 616 775 588 712 c 1
 566 697 554 709 545 726 c 1
 545 879 552 1078 722 1078 c 0
 936 1078 1008 790 1059 570 c 1
 1074 504 1085 417 1085 333 c 0
 1085 221 1065 114 1006 72 c 1
 949 44 956 44 617 -18 c 1
 590 -23 571 -27 555 -27 c 0
 517 -27 498 -5 441 72 c 1xbc
EndSplineSet
EndChar

StartChar: yod
Encoding: 1497 1497 155
Width: 641
VWidth: 2273
Flags: W
VStem: 0 62<1099 1171.66> 346 144<488.271 804.502>
AnchorPoint: "VR" 414.175 0 basechar 0
AnchorPoint: "Holam" 154.175 0 basechar 0
AnchorPoint: "N" 464.175 0 basechar 0
AnchorPoint: "W" 512.175 0 basechar 0
AnchorPoint: "H" 414.175 0 basechar 0
LayerCount: 2
Fore
SplineSet
312 426 m 1
 311 429 310 434 310 439 c 0
 310 483 346 585 346 684 c 0
 346 784 299 831 202 850 c 2
 126 864 l 2
 102 868 49 880 43 906 c 2
 0 1133 l 2
 -8 1179 27 1181 40 1172 c 0
 50 1165 60 1141 62 1135 c 0
 78 1095 139 1074 165 1067 c 10
 310 1032 l 17
 461 992 490 889 490 756 c 0
 490 661 475 547 450 492 c 1
 412 411 376 400 356 400 c 1
 320 400 315 418 312 426 c 1
EndSplineSet
EndChar

StartChar: finalkaf
Encoding: 1498 1498 156
Width: 853
VWidth: 2273
Flags: W
HStem: 860 189<14.0388 532.888>
VStem: -70 57<1092.1 1168.09>
AnchorPoint: "VR" 253.183 0 basechar 0
AnchorPoint: "Holam" 59 0 basechar 0
AnchorPoint: "N" 510.337 -5 basechar 0
AnchorPoint: "W" 359.183 0 basechar 0
AnchorPoint: "H" 354.337 -5 basechar 0
LayerCount: 2
Fore
SplineSet
615 627 m 0
 570 824 565 860 249 860 c 2
 21 860 l 2
 -4 860 -27 877 -27 902 c 1
 -70 1132 l 1
 -70 1157 -44 1171 -28 1171 c 0
 -20 1171 -14 1168 -13 1162 c 0
 -4 1124 24 1067 48 1049 c 9
 408 1049 l 17
 615 1049 690 935 718 817 c 1
 733 749 762 532 776 475 c 0
 847 164 944 -21 991 -224 c 0
 995 -240 996 -255 996 -270 c 0
 996 -324 974 -370 953 -410 c 0
 945 -424 931 -430 915 -436 c 2
 887 -447 l 1
 866 -452 863 -447 859 -428 c 0
 811 -218 726 150 615 627 c 0
EndSplineSet
EndChar

StartChar: kaf
Encoding: 1499 1499 157
Width: 966
VWidth: 2273
Flags: W
HStem: 0 198<219.699 861.935> 860 189<137.191 591.016>
VStem: 51 63<1082.82 1170.66> 864 144<204.214 362.949>
AnchorPoint: "R" 640 0 basechar 0
AnchorPoint: "VR" 579.932 0 basechar 0
AnchorPoint: "Holam" 211.588 0 basechar 0
AnchorPoint: "N" 600.932 0 basechar 0
AnchorPoint: "W" 545.932 0 basechar 0
AnchorPoint: "H" 579.932 0 basechar 0
LayerCount: 2
Fore
SplineSet
184 860 m 2
 159 860 107 876 101 902 c 2
 51 1132 l 2
 41 1178 81 1180 94 1171 c 0
 104 1164 112 1140 114 1134 c 1
 130 1094 169 1049 195 1049 c 9
 522 1049 l 18
 785 1049 876 612 1003 253 c 1
 1006 239 1008 224 1008 209 c 0
 1008 108 937 0 860 0 c 10
 276 0 l 1
 253 0 231 -5 223 31 c 1
 187 165 l 2
 180 192 193 198 221 198 c 2
 760 198 l 18
 837 198 864 216 864 262 c 0
 864 278 860 297 855 320 c 2
 835 407 l 2
 789 605 710 860 397 860 c 2
 184 860 l 2
EndSplineSet
Substitution2: "'jalt' Justification Alternatives lookup -1" khaf.wide
EndChar

StartChar: lamed
Encoding: 1500 1500 158
Width: 980
VWidth: 2273
Flags: W
HStem: 860 189<106.501 654.417> 1442 197<45.3881 137.395>
VStem: -58 194<1544.76 1638.99> -58 92<1156.23 1420.01> 698 142<541.656 820.607>
AnchorPoint: "J1" 112 0 basechar 0
AnchorPoint: "VR" 547 0 basechar 0
AnchorPoint: "Holam" 57.9131 100 basechar 0
AnchorPoint: "N" 398 0 basechar 0
AnchorPoint: "W" 461 0 basechar 0
AnchorPoint: "H" 461 0 basechar 0
LayerCount: 2
Fore
SplineSet
332 40 m 9xd8
 307 182 l 17
 307 183 307 183 307 184 c 0
 307 209 398 252 434 272 c 1
 635 393 698 564 698 692 c 0
 698 711 696 729 692 746 c 0
 676 814 628 860 553 860 c 10
 97 860 l 18
 19 860 9 889 -3 940 c 0
 -58 1176 -58 1348 -58 1586 c 0
 -58 1592 l 0
 -58 1634 -57 1639 -12 1639 c 1
 97 1639 l 1
 123 1639 129 1631 136 1603 c 2xe8
 168 1473 l 2
 176 1441 158 1442 128 1442 c 1
 124 1442 113 1442 100 1442 c 0
 79 1442 53 1439 45 1421 c 1
 37 1400 34 1377 34 1351 c 0
 34 1315 41 1274 50 1235 c 0
 60 1192 81 1141 102 1100 c 1
 126 1059 150 1049 180 1049 c 1
 634 1049 l 1
 746 1031 808 960 831 863 c 0
 837 836 840 807 840 776 c 0
 840 521 645 147 379 4 c 1
 339 -18 341 3 332 40 c 9xd8
EndSplineSet
Substitution2: "'jalt' Justification Alternatives lookup -1" lamed.wide
EndChar

StartChar: finalmem
Encoding: 1501 1501 159
Width: 1181
VWidth: 2273
Flags: W
HStem: 0 198<419.628 1060.99> 860 189<284.007 822.713>
VStem: 30 65<1081.2 1170.66> 200 84<615.278 838> 1061 157<82 272.417>
AnchorPoint: "VR" 802.643 0 basechar 0
AnchorPoint: "Holam" 193.621 0 basechar 0
AnchorPoint: "N" 764.643 0 basechar 0
AnchorPoint: "W" 800.643 0 basechar 0
AnchorPoint: "H" 802.643 0 basechar 0
LayerCount: 2
Fore
SplineSet
716 1049 m 1
 955 1049 996 903 1041 744 c 2
 1193 203 l 2
 1202 160 1218 117 1218 96 c 0
 1218 68 1183 0 1103 0 c 10
 396 0 l 18
 344 0 339 18 332 49 c 0
 316 117 200 496 200 759 c 1
 200 838 l 9
 162 850 l 2
 138 858 86 876 80 902 c 2
 30 1132 l 2
 20 1178 59 1180 72 1171 c 0
 82 1164 93 1140 95 1134 c 0
 111 1094 148 1049 174 1049 c 1
 716 1049 l 1
284 830 m 0
 284 826 335 557 349 500 c 0
 410 236 421 198 487 198 c 10
 986 198 l 18
 1044 198 1061 209 1061 239 c 0
 1061 253 1058 270 1053 291 c 2
 1048 314 l 1
 1018 443 943 634 937 650 c 1
 867 839 799 860 563 860 c 1
 324 860 l 1
 294 860 284 850 284 830 c 0
EndSplineSet
Substitution2: "'jalt' Justification Alternatives lookup -1" finalmem.wide
EndChar

StartChar: mem
Encoding: 1502 1502 160
Width: 1235
VWidth: 2273
Flags: W
HStem: 0 198<685.698 1136.45> 847 202<593.076 886.274>
VStem: 10 63<1082.82 1170.66> 294 157<0.895119 411.488> 323 121<82.1729 680.238> 1139 132<160 366.016>
AnchorPoint: "VR" 796.23 0 basechar 0
AnchorPoint: "Holam" 162.364 0 basechar 0
AnchorPoint: "N" 806.23 0 basechar 0
AnchorPoint: "W" 821.23 0 basechar 0
AnchorPoint: "H" 796.23 0 basechar 0
LayerCount: 2
Fore
SplineSet
743 0 m 1xec
 721 0 697 -5 689 31 c 1
 653 165 l 2
 646 192 659 198 687 198 c 2
 1043 198 l 18
 1110 198 1139 204 1139 241 c 0
 1139 248 1137 257 1135 268 c 0
 1132 282 1124 298 1120 318 c 1
 1030 567 l 1
 950 764 889 847 747 847 c 0
 722 847 695 845 664 840 c 1
 630 828 591 804 577 789 c 1
 465 699 444 581 444 416 c 0xec
 444 320 451 208 451 76 c 0
 451 18 448 0 386 0 c 10
 337 0 l 2
 312 0 299 2 294 20 c 0
 292 28 294 38 294 52 c 0xf4
 294 134 323 316 323 492 c 0
 323 566 318 638 303 702 c 0
 296 734 282 782 234 803 c 1
 133 838 l 2
 111 848 63 866 57 892 c 2
 10 1132 l 2
 1 1178 39 1180 52 1171 c 0
 62 1164 71 1140 73 1134 c 1
 89 1094 128 1049 154 1049 c 9
 242 998 358 1008 379 918 c 0
 388 880 382 861 391 772 c 1
 395 752 422 745 433 759 c 1
 486 816 542 889 575 965 c 1
 604 1044 539 1049 709 1049 c 0
 920 1049 996 1019 1113 691 c 0
 1162 555 1220 420 1262 237 c 0
 1267 214 1271 187 1271 160 c 0
 1271 82 1240 0 1126 0 c 10
 743 0 l 1xec
EndSplineSet
EndChar

StartChar: finalnun
Encoding: 1503 1503 161
Width: 551
VWidth: 2273
Flags: W
HStem: 860 189<56.191 239.344>
VStem: -32 65<1082.82 1170.66>
AnchorPoint: "VR" -133.373 0 basechar 0
AnchorPoint: "Holam" 119.444 0 basechar 0
AnchorPoint: "N" 205.627 0 basechar 0
AnchorPoint: "W" 16.627 0 basechar 0
AnchorPoint: "H" 16.627 0 basechar 0
LayerCount: 2
Fore
SplineSet
649 -232 m 1
 649 -377 574 -449 560 -449 c 0
 551 -449 544 -431 534 -387 c 0
 426 84 351 312 247 790 c 0
 239 825 228 860 144 860 c 2
 103 860 l 2
 78 860 26 876 20 902 c 2
 -32 1132 l 2
 -33 1137 -32 1142 -32 1146 c 0
 -32 1168 -17 1175 -4 1175 c 0
 2 1175 8 1174 12 1171 c 0
 22 1164 31 1140 33 1134 c 0
 49 1094 88 1049 114 1049 c 10
 296 1049 l 18
 335 1049 352 1013 359 985 c 2
 378 899 l 2
 381 884 383 875 383 868 c 1
 381 863 375 851 375 816 c 0
 375 781 382 724 407 629 c 1
 498 238 619 63 649 -232 c 1
EndSplineSet
EndChar

StartChar: nun
Encoding: 1504 1504 162
Width: 710
VWidth: 2273
Flags: W
HStem: 0 198<207.699 568.922> 860 189<166.191 381.62>
VStem: 80 63<1082.82 1170.66>
AnchorPoint: "VR" 492.621 0 basechar 0
AnchorPoint: "Holam" 231.621 0 basechar 0
AnchorPoint: "N" 462.621 0 basechar 0
AnchorPoint: "W" 464.621 0 basechar 0
AnchorPoint: "H" 492.621 0 basechar 0
LayerCount: 2
Fore
SplineSet
213 860 m 2
 188 860 136 876 130 902 c 2
 80 1132 l 2
 70 1178 109 1180 122 1171 c 0
 132 1164 141 1140 143 1134 c 0
 159 1094 198 1049 224 1049 c 10
 396 1049 l 18
 470 1049 498 975 524 860 c 2
 542 783 l 2
 614 473 739 82 740 76 c 0
 743 66 744 57 744 49 c 0
 744 13 714 0 625 0 c 10
 264 0 l 2
 242 0 219 -5 211 31 c 1
 175 165 l 2
 168 192 181 198 209 198 c 2
 535 198 l 18
 573 198 575 218 568 247 c 0
 526 430 408 860 338 860 c 2
 213 860 l 2
EndSplineSet
EndChar

StartChar: samekh
Encoding: 1505 1505 163
Width: 1126
VWidth: 2273
Flags: W
HStem: -34 232<517.277 856.5> 860 189<255.589 772.646>
VStem: 24 63<1082.82 1170.66> 944 122<273.737 598.564>
AnchorPoint: "VR" 768.412 0 basechar 0
AnchorPoint: "Holam" 193.621 0 basechar 0
AnchorPoint: "N" 733.412 0 basechar 0
AnchorPoint: "W" 693.412 0 basechar 0
AnchorPoint: "H" 768.412 0 basechar 0
LayerCount: 2
Fore
SplineSet
710 1049 m 1
 789 1049 910 971 947 860 c 1
 1033 660 1066 434 1066 319 c 0
 1066 117 985 -34 715 -34 c 0
 339 -34 257 315 152 772 c 1
 134 875 81 867 74 902 c 2
 24 1132 l 2
 14 1178 53 1180 66 1171 c 0
 76 1164 85 1140 87 1134 c 0
 103 1094 142 1049 168 1049 c 1
 710 1049 l 1
674 198 m 0
 772 198 944 235 944 384 c 0
 944 425 934 453 925 500 c 1
 862 773 815 860 567 860 c 0
 254 860 254 832 254 800 c 0
 254 790 256 777 260 760 c 0
 378 247 524 198 674 198 c 0
EndSplineSet
EndChar

StartChar: ayin
Encoding: 1506 1506 164
Width: 1152
VWidth: 2273
Flags: W
HStem: 848 201<334.712 350 703.188 768.082>
VStem: 32 65<1081.2 1170.66> 818 107<417.004 844.589>
AnchorPoint: "D" 719.534 100 basechar 0
AnchorPoint: "VR" 598.621 0 basechar 0
AnchorPoint: "Holam" 192.621 0 basechar 0
AnchorPoint: "N" 588.621 0 basechar 0
AnchorPoint: "W" 688.621 0 basechar 0
AnchorPoint: "H" 598.621 0 basechar 0
LayerCount: 2
Fore
SplineSet
310 1049 m 2
 336 1049 342 1041 348 1013 c 2
 380 883 l 1
 386 866 372 861 368 860 c 9
 311 844 l 17
 375 568 580 357 707 327 c 1
 803 409 818 543 818 660 c 0
 818 714 815 764 815 804 c 0
 815 822 818 836 783 843 c 10
 755 848 l 1
 734 853 712 854 706 882 c 1
 670 1016 l 2
 663 1043 676 1049 704 1049 c 2
 902 1049 l 2
 928 1049 933 1041 940 1013 c 2
 972 883 l 2
 975 870 965 867 954 860 c 1
 939 850 921 840 921 840 c 1
 921 735 925 643 925 561 c 0
 925 256 869 91 338 -32 c 0
 295 -42 265 -48 246 -48 c 0
 231 -48 222 -44 219 -30 c 0
 218 -28 218 -25 218 -22 c 0
 218 -10 222 8 222 34 c 9
 222 105 l 17
 222 170 264 162 356 178 c 2
 592 216 l 1
 421 318 255 594 198 840 c 1
 150 856 l 2
 127 864 88 876 82 902 c 2
 32 1132 l 2
 22 1178 61 1180 74 1171 c 0
 84 1164 95 1140 97 1134 c 1
 113 1094 150 1049 176 1049 c 9
 310 1049 l 2
EndSplineSet
Substitution2: "'salt' Stylistic Alternatives lookup-1" ayin.alt
Substitution2: "Alternate Ayin Substitution Table" ayin.alt
EndChar

StartChar: finalpe
Encoding: 1507 1507 165
Width: 924
VWidth: 2273
Flags: W
HStem: 434 181<254.872 410.578> 860 189<213.009 577.945>
VStem: 93 120<659.11 859.693> 932 114<-413.185 -217.649>
AnchorPoint: "VR" 394 0 basechar 0
AnchorPoint: "Holam" 247 0 basechar 0
AnchorPoint: "H" 393.77 1 basechar 0
AnchorPoint: "W" 506.77 1 basechar 0
AnchorPoint: "N" 656.77 1 basechar 0
LayerCount: 2
Fore
SplineSet
1046 -239 m 0
 1046 -396 968 -457 960 -457 c 0
 950 -457 942 -438 932 -394 c 0
 823 77 793 129 670 663 c 0
 635 816 585 860 267 860 c 0
 225 860 213 843 213 819 c 0
 213 778 226 779 247 684 c 0
 262 620 289 615 318 615 c 0
 326 615 334 616 344 616 c 0
 376 616 400 603 420 550 c 10
 439 501 l 18
 444 488 450 465 450 456 c 0
 450 435 434 434 402 434 c 2
 257 434 l 2
 199 434 169 450 108 704 c 0
 96 755 93 806 93 860 c 0
 93 912 97 938 97 996 c 2
 97 1132 l 2
 97 1150 108 1174 128 1174 c 0
 153 1174 143 1049 215 1049 c 10
 404 1049 l 2
 640 1049 732 942 750 860 c 1
 778 804 814 637 818 618 c 0
 901 258 1046 -62 1046 -239 c 0
EndSplineSet
EndChar

StartChar: pe
Encoding: 1508 1508 166
Width: 1006
VWidth: 2273
Flags: W
HStem: 0 198<265.699 899.424> 435 182<294.211 452.143> 860 189<248.165 617.246>
VStem: 153 95<668.387 859.693> 902 139<137.5 374.151>
AnchorPoint: "R" 700 0 basechar 0
AnchorPoint: "VR" 629 0 basechar 0
AnchorPoint: "Holam" 265 0 basechar 0
AnchorPoint: "H" 629 0 basechar 0
AnchorPoint: "W" 695 0 basechar 0
AnchorPoint: "N" 649 0 basechar 0
LayerCount: 2
Fore
SplineSet
490 1049 m 2
 714 1049 788 998 882 714 c 1
 1025 288 l 1
 1028 269 1041 246 1041 195 c 0
 1041 80 960 0 902 0 c 10
 322 0 l 2
 301 0 277 -5 269 31 c 1
 233 165 l 2
 226 192 239 198 267 198 c 2
 696 198 l 2
 849 198 902 212 902 259 c 0
 902 288 878 339 866 364 c 1
 861 385 729 685 705 721 c 0
 654 799 644 860 302 860 c 0
 260 860 248 843 248 819 c 0
 248 790 263 745 288 674 c 0
 304 631 333 617 359 617 c 0
 444 617 435 614 459 556 c 9
 476 508 l 18
 482 493 492 466 492 456 c 0
 492 436 473 435 425 435 c 2
 297 435 l 2
 237 435 210 463 158 689 c 0
 154 705 153 723 153 741 c 2
 153 741 147 806 147 860 c 0
 147 912 153 938 153 996 c 2
 153 1132 l 2
 153 1150 162 1174 182 1174 c 0
 207 1174 197 1049 269 1049 c 10
 490 1049 l 2
EndSplineSet
EndChar

StartChar: finaltsadi
Encoding: 1509 1509 167
Width: 1140
VWidth: 2273
Flags: W
HStem: 851 198<52.4096 204.122 681.698 716.619 821.436 926.441>
VStem: -35 42<1136.15 1173.01>
AnchorPoint: "M1" 283.892 0 basechar 0
AnchorPoint: "Holam" 128.892 0 basechar 0
AnchorPoint: "H" 1025.91 0 basechar 0
AnchorPoint: "W" 895.913 0 basechar 0
AnchorPoint: "N" 805.913 0 basechar 0
LayerCount: 2
Fore
SplineSet
522 286 m 1
 570 79 713 -196 713 -303 c 0
 713 -353 688 -395 675 -399 c 10
 642 -410 l 18
 628 -414 618 -417 611 -417 c 0
 569 -417 616 -323 247 743 c 0
 211 846 106 847 106 847 c 1
 74 851 28 857 23 889 c 1
 -35 1132 l 2
 -46 1178 -6 1180 7 1171 c 0
 19 1163 59 1047 109 1047 c 10
 291 1047 l 2
 317 1047 322 1039 329 1011 c 2
 361 881 l 2
 361 879 362 878 362 876 c 1
 316 814 l 1
 321 803 325 790 331 774 c 2
 461 448 l 1
 568 554 669 669 719 816 c 0
 724 830 729 851 717 851 c 0
 703 851 690 858 685 882 c 1
 649 1016 l 2
 642 1043 655 1049 683 1049 c 2
 879 1049 l 2
 906 1049 919 1040 925 1012 c 2
 957 882 l 2
 957 880 958 879 958 877 c 0
 958 849 890 844 865 838 c 1
 819 825 820 804 801 750 c 1
 733 574 637 445 522 286 c 1
EndSplineSet
EndChar

StartChar: tsadi
Encoding: 1510 1510 168
Width: 1051
VWidth: 2273
Flags: W
HStem: 0 200<228.188 811> 853 200<115.49 237.741 607.698 695.702>
VStem: 28 63<1088 1176.66>
AnchorPoint: "VR" 618.082 0 basechar 0
AnchorPoint: "Holam" 203.892 0 basechar 0
AnchorPoint: "H" 618.082 0 basechar 0
AnchorPoint: "W" 618.082 0 basechar 0
AnchorPoint: "N" 618.082 0 basechar 0
LayerCount: 2
Fore
SplineSet
904 0 m 10
 285 0 l 2
 263 0 241 -3 231 33 c 2
 195 167 l 1
 189 194 201 200 229 200 c 1
 716 200 l 1
 784 200 811 205 811 223 c 0
 811 224 811 225 811 226 c 0
 808 247 762 279 720 316 c 0
 538 474 603 422 258 789 c 0
 206 844 183 853 174 853 c 0
 142 853 94 863 86 895 c 2
 28 1138 l 2
 17 1184 57 1186 70 1177 c 0
 80 1170 89 1146 91 1140 c 0
 107 1100 146 1053 172 1053 c 10
 354 1053 l 2
 380 1053 385 1045 392 1017 c 2
 425 882 l 1
 425 860 377 848 377 827 c 0
 377 825 378 823 379 820 c 0
 385 810 620 556 664 512 c 1
 685 564 708 654 708 729 c 0
 708 792 692 853 643 853 c 0
 629 853 617 858 611 882 c 2
 575 1016 l 2
 568 1043 581 1049 609 1049 c 2
 820 1049 l 18
 847 1049 860 1040 866 1012 c 2
 899 877 l 1
 899 849 863 839 838 833 c 1
 796 792 831 576 755 425 c 1
 825 360 903 307 977 246 c 0
 1016 214 1028 205 1028 163 c 0
 1028 134 1025 83 1025 83 c 1
 1020 40 975 0 904 0 c 10
EndSplineSet
EndChar

StartChar: kof
Encoding: 1511 1511 169
Width: 1083
VWidth: 2273
Flags: W
HStem: 860 189<126.191 767.943>
VStem: 42 61<1084.46 1170.66> 870 104<397.518 752.9>
AnchorPoint: "M1" 154.693 0 basechar 0
AnchorPoint: "Holam" 202.924 -1 basechar 0
AnchorPoint: "H" 833.693 0 basechar 0
AnchorPoint: "W" 723.693 0 basechar 0
AnchorPoint: "N" 715.693 0 basechar 0
LayerCount: 2
Fore
SplineSet
173 860 m 2
 148 860 96 876 90 902 c 2
 42 1132 l 2
 32 1178 69 1180 82 1171 c 0
 92 1164 101 1140 103 1134 c 1
 119 1094 158 1049 184 1049 c 1
 704 1049 l 1
 852 1049 925 921 939 860 c 0
 962 759 974 663 974 574 c 0
 974 327 888 127 732 -10 c 1
 721 -18 706 -23 691 -23 c 0
 669 -23 658 -15 647 16 c 0
 643 27 640 41 638 54 c 10
 618 149 l 17
 618 202 632 208 677 232 c 1
 782 295 870 433 870 577 c 0
 870 602 868 628 862 653 c 0
 828 801 754 860 604 860 c 10
 173 860 l 2
478 -410 m 1
 454 -419 439 -425 428 -425 c 0
 408 -425 404 -407 393 -359 c 2
 218 400 l 2
 211 431 207 450 207 466 c 0
 207 486 213 502 223 527 c 2
 276 649 l 2
 278 654 285 657 291 657 c 0
 298 657 304 654 304 649 c 0
 317 537 335 438 356 346 c 0
 405 136 469 -38 516 -242 c 0
 521 -264 523 -284 523 -303 c 0
 523 -360 502 -396 478 -410 c 1
EndSplineSet
EndChar

StartChar: resh
Encoding: 1512 1512 170
Width: 869
VWidth: 2273
Flags: W
HStem: 860 189<8.19104 547.684>
VStem: -78 63<1082.82 1170.66>
AnchorPoint: "VR" 747.621 0 basechar 0
AnchorPoint: "Holam" 82.6211 0 basechar 0
AnchorPoint: "H" 747.852 -1 basechar 0
AnchorPoint: "W" 847.852 -1 basechar 0
AnchorPoint: "N" 859.852 -1 basechar 0
LayerCount: 2
Fore
SplineSet
855 -8 m 0
 849 -15 842 -21 830 -27 c 1
 824 -30 818 -32 814 -32 c 0
 805 -32 801 -21 793 14 c 0
 772 104 658 540 639 624 c 0
 595 814 583 860 267 860 c 2
 55 860 l 2
 30 860 -22 876 -28 902 c 2
 -78 1132 l 2
 -88 1178 -49 1180 -36 1171 c 0
 -26 1164 -17 1140 -15 1134 c 1
 1 1094 40 1049 66 1049 c 1
 413 1049 l 1
 682 1049 694 843 756 667 c 1
 862 322 l 1
 865 306 886 234 889 222 c 0
 893 203 895 188 895 174 c 0
 895 146 871 16 855 -8 c 0
EndSplineSet
Substitution2: "'jalt' Justification Alternatives lookup -1" resh.wide
EndChar

StartChar: shin
Encoding: 1513 1513 171
Width: 1362
VWidth: 2273
Flags: W
HStem: -19 216<552.341 610 716.149 901.301> 860 189<291.451 341.137 506.431 602.345 729.762 799.312 958.432 1070.93 1190.55 1230.12>
VStem: -12 63<1082.82 1170.66> 610 106<198.015 846.274> 1081 100<416.641 854.625>
AnchorPoint: "VR" 786.621 0 basechar 0
AnchorPoint: "Holam" 147.621 0 basechar 0
AnchorPoint: "H" 786.621 0 basechar 0
AnchorPoint: "W" 746.621 0 basechar 0
AnchorPoint: "N" 696.621 0 basechar 0
LayerCount: 2
Fore
SplineSet
764 1049 m 18
 790 1049 791 1039 798 1011 c 2
 826 892 l 2
 834 860 796 864 786 860 c 0
 732 838 716 803 716 758 c 2
 716 218 l 1
 719 201 733 197 750 197 c 0
 762 197 774 198 787 200 c 0
 1045 234 1081 507 1081 750 c 0
 1081 834 1046 860 1011 860 c 0
 990 860 967 855 958 891 c 2
 926 1016 l 2
 919 1043 932 1049 960 1049 c 1
 1190 1049 l 1
 1216 1049 1220 1041 1228 1013 c 2
 1262 892 l 2
 1267 876 1231 864 1222 860 c 0
 1188 845 1181 790 1181 718 c 0
 1181 653 1183 588 1183 525 c 0
 1183 229 1139 -19 632 -19 c 2
 599 -19 l 2
 553 -19 500 -16 465 54 c 0
 360 263 290 471 202 724 c 0
 168 821 141 853 108 860 c 0
 81 866 43 881 38 902 c 2
 -12 1132 l 2
 -22 1178 17 1180 30 1171 c 0
 40 1164 49 1140 51 1134 c 0
 67 1094 106 1049 132 1049 c 10
 302 1049 l 2
 328 1049 333 1041 340 1013 c 2
 366 894 l 2
 373 864 355 860 330 860 c 0
 307 860 290 831 290 800 c 0
 290 791 291 782 294 774 c 0
 370 560 388 414 533 260 c 0
 565 225 601 198 610 198 c 1
 610 762 l 18
 610 822 586 860 559 860 c 0
 537 860 515 855 506 891 c 2
 476 1016 l 2
 469 1043 482 1049 510 1049 c 10
 764 1049 l 18
EndSplineSet
EndChar

StartChar: tav
Encoding: 1514 1514 172
Width: 1183
VWidth: 2273
Flags: W
HStem: 0 158<185.707 358.59> 860 189<361.512 855.945>
VStem: 143 63<1082.82 1170.66> 251 100<644.264 837.683> 359 154<90.5 324.5>
AnchorPoint: "R" 822 0 basechar 0
AnchorPoint: "VR" 816.621 0 basechar 0
AnchorPoint: "Holam" 298.621 0 basechar 0
AnchorPoint: "H" 817.083 -2 basechar 0
AnchorPoint: "W" 804.083 -2 basechar 0
AnchorPoint: "N" 777.083 -2 basechar 0
LayerCount: 2
Fore
SplineSet
1219 137 m 0
 1219 68 1174 -35 1144 -35 c 0
 1124 -35 1109 3 1094 70 c 0
 1073 159 974 519 950 624 c 0
 907 809 894 860 578 860 c 2
 417 860 l 2
 369 860 351 806 351 750 c 0
 351 729 355 708 359 689 c 1
 492 249 l 1
 497 225 513 187 513 126 c 0
 513 55 486 0 396 0 c 10
 243 0 l 18
 188 0 181 10 181 44 c 0
 181 55 182 68 182 83 c 0
 182 142 206 144 279 158 c 1
 337 167 359 173 359 210 c 0
 359 226 355 247 348 277 c 0
 348 279 347 282 346 285 c 2
 258 645 l 2
 253 666 251 684 251 702 c 0
 251 777 285 811 285 839 c 0
 285 846 282 853 276 860 c 0
 276 861 199 876 193 902 c 2
 143 1132 l 2
 133 1178 172 1180 185 1171 c 0
 195 1164 204 1140 206 1134 c 0
 222 1094 261 1049 287 1049 c 1
 727 1049 l 1
 982 1049 1005 843 1067 667 c 9
 1212 181 l 17
 1218 169 1219 149 1219 137 c 0
EndSplineSet
Substitution2: "'jalt' Justification Alternatives lookup -1" tav.wide
EndChar

StartChar: newshekel
Encoding: 8362 8362 186
Width: 1518
VWidth: 1761
Flags: W
HStem: -24 217<642.716 879.348> 860 189<-92.4648 -46.0008 110.429 641.636 928.432 1038.08>
VStem: -178 63<1082.88 1170.66> 1051 96<415.414 849.272>
LayerCount: 2
Fore
SplineSet
98 741 m 0
 98 595 216 290 216 188 c 0
 216 125 192 77 146 10 c 0
 136 -4 133 -8 114 -13 c 1
 85 -13 l 1
 62 -16 62 -15 58 4 c 0
 10 213 31 495 -37 789 c 0
 -48 838 -80 860 -97 860 c 1
 -97 860 -122 876 -128 902 c 2
 -178 1132 l 2
 -188 1178 -149 1180 -136 1171 c 0
 -126 1164 -117 1140 -115 1134 c 0
 -99 1094 -70 1066 -46 1049 c 9
 766 1049 l 2
 792 1049 796 1040 804 1012 c 2
 829 921 l 17
 831 911 832 903 832 896 c 0
 832 851 788 888 788 774 c 0
 788 568 862 493 862 415 c 0
 862 361 840 315 819 275 c 0
 807 252 797 257 777 252 c 0
 756 247 753 252 749 271 c 2
 651 785 l 2
 642 835 617 860 545 860 c 2
 177 860 l 2
 116 860 98 805 98 741 c 0
220 792 m 1
 218 800 231 810 238 802 c 1
 259 781 280 759 321 759 c 1
 392 759 454 758 522 758 c 1
 548 755 555 746 562 718 c 2
 588 599 l 2
 595 569 577 565 552 565 c 0
 529 565 512 534 512 504 c 0
 512 495 513 487 516 479 c 0
 592 265 666 193 722 193 c 0
 1008 193 1051 492 1051 745 c 0
 1051 829 1016 855 981 855 c 0
 960 855 937 850 928 886 c 2
 896 1011 l 2
 889 1038 902 1044 930 1044 c 2
 1160 1044 l 2
 1186 1044 1190 1036 1198 1008 c 2
 1232 887 l 2
 1237 871 1201 859 1192 855 c 0
 1156 834 1147 768 1147 695 c 0
 1147 634 1153 568 1153 520 c 0
 1153 224 1036 -24 744 -24 c 2
 711 -24 l 2
 665 -24 612 -21 577 49 c 0
 472 258 512 176 424 429 c 0
 390 526 363 558 330 565 c 0
 303 571 265 585 260 607 c 2
 220 792 l 1
EndSplineSet
EndChar

StartChar: Euro
Encoding: 8364 8364 187
Width: 929
Flags: W
HStem: 0 59<446.83 664.939> 399 63<0 63 242 495> 588 61<-46 26 195 452> 991 62<240.44 468.196>
VStem: 20 154<649 933.881> 63 161<462 530.705> 715 64<194.099 261>
LayerCount: 2
Fore
SplineSet
557 0 m 0xf6
 328 0 167 163 84 399 c 1
 0 399 l 1
 -17 462 l 1
 63 462 l 1xf6
 60 471 59 480 57 489 c 0
 52 510 47 531 43 552 c 0
 40 564 36 576 34 588 c 1
 -46 588 l 1
 -60 649 l 1
 26 649 l 1
 22 682 20 712 20 739 c 0
 20 1000 177 1053 314 1053 c 0
 423 1053 507 1032 574 1014 c 1
 621 821 l 1
 569 821 l 1
 531 923 l 1
 470 970 399 991 344 991 c 0
 264 991 174 963 174 774 c 0xfa
 174 738 177 697 184 649 c 1
 452 649 l 1
 466 588 l 1
 195 588 l 1
 197 576 200 565 202 553 c 2
 217 489 l 2
 219 480 221 471 224 462 c 1
 495 462 l 1
 510 399 l 1
 242 399 l 1
 332 116 461 59 555 59 c 0
 619 59 680 81 715 136 c 1
 715 261 l 1
 779 261 l 1
 824 51 l 1
 768 28 663 0 557 0 c 0xf6
EndSplineSet
EndChar

StartChar: dottedcircle
Encoding: 9676 9676 188
Width: 1276
VWidth: 2273
Flags: W
HStem: 61 139<547.025 667.042> 121 139<310.151 430.042 756.025 876.042> 283 140<110.846 230.114 881.921 1000.63> 506 140<-0.988094 118.042 891.958 1009.27> 729 140<10.5948 127.042 779.025 897.631> 892 139<132.304 252.253 578.025 698.127> 952 141<341.025 460.178>
VStem: 0 140<512.281 626.794 740.154 854.899> 100 143<295.358 409.193> 121 144<904.82 1018.23> 299 144<133.76 247.18> 330 144<964.82 1079.56> 536 144<73.7602 187.18> 567 144<904.82 1018.24> 745 144<133.772 247.18> 768 143<741.82 855.384> 871 143<296.099 409.193 524.183 637.62>
LayerCount: 2
Fore
SplineSet
823 869 m 0x3801
 861 869 900 837 909 799 c 0
 910 793 911 788 911 783 c 0
 911 752 889 729 856 729 c 0
 817 729 777 760 768 799 c 0
 767 805 768 810 768 815 c 0
 768 846 790 869 823 869 c 0x3801
801 260 m 0x7802
 839 260 878 229 887 190 c 0
 888 185 889 180 889 175 c 0
 889 144 866 121 833 121 c 0
 794 121 754 152 745 190 c 0
 744 196 745 201 745 206 c 0
 745 237 768 260 801 260 c 0x7802
154 423 m 0
 193 423 232 392 241 353 c 0
 242 348 243 343 243 338 c 0
 243 307 221 283 187 283 c 0
 149 283 108 315 100 353 c 0
 98 359 100 365 100 370 c 0x3880
 100 401 122 423 154 423 c 0
177 1031 m 0x3c40
 216 1031 254 1000 263 962 c 0
 264 956 265 951 265 946 c 0
 265 915 242 892 209 892 c 0
 171 892 130 923 121 962 c 0
 120 967 121 972 121 977 c 0
 121 1008 144 1031 177 1031 c 0x3c40
51 869 m 0
 90 869 129 837 138 799 c 0
 139 793 140 788 140 783 c 0
 140 752 117 729 84 729 c 0
 46 729 9 760 0 799 c 0
 -1 805 0 810 0 816 c 0x39
 0 846 19 869 51 869 c 0
355 260 m 0x7820
 394 260 432 229 441 190 c 0
 442 185 443 179 443 174 c 0
 443 144 420 121 387 121 c 0
 349 121 308 152 299 190 c 0
 298 195 299 201 299 206 c 0
 299 237 322 260 355 260 c 0x7820
926 423 m 0
 964 423 1002 392 1012 353 c 0
 1013 348 1014 343 1014 338 c 0
 1014 307 992 283 959 283 c 0
 920 283 879 315 871 353 c 0
 870 359 871 364 871 369 c 0x380080
 871 400 893 423 926 423 c 0
623 1031 m 0x3c04
 661 1031 700 1000 709 962 c 0
 710 957 711 951 711 946 c 0
 711 915 688 892 655 892 c 0
 616 892 576 923 567 962 c 0
 566 967 567 973 567 978 c 0
 567 1008 590 1031 623 1031 c 0x3c04
592 200 m 0xb808
 631 200 669 169 678 130 c 0
 679 125 680 119 680 114 c 0
 680 84 657 61 624 61 c 0
 585 61 545 92 536 130 c 0
 535 136 536 141 536 146 c 0
 536 177 559 200 592 200 c 0xb808
935 646 m 0
 973 646 1011 615 1020 576 c 0
 1021 570 1022 565 1022 560 c 0
 1022 529 1000 506 967 506 c 0
 928 506 890 537 881 576 c 0
 880 582 879 587 879 592 c 0
 879 623 902 646 935 646 c 0
386 1093 m 0x3a10
 425 1093 463 1060 472 1022 c 0
 473 1016 474 1011 474 1006 c 0
 474 975 451 952 418 952 c 0
 379 952 339 983 330 1022 c 0
 329 1027 330 1033 330 1038 c 0
 330 1069 353 1093 386 1093 c 0x3a10
43 646 m 0
 82 646 120 615 129 576 c 0
 130 570 131 565 131 560 c 0
 131 529 108 506 75 506 c 0
 37 506 -3 537 -12 576 c 0
 -13 582 -12 587 -12 592 c 0
 -12 623 10 646 43 646 c 0
EndSplineSet
EndChar

StartChar: ayin.alt
Encoding: 64288 64288 194
Width: 1152
VWidth: 2273
Flags: W
HStem: 848 201<334.712 350 703.188 768.082>
VStem: 32 65<1081.2 1170.66> 818 107<417.004 844.589>
AnchorPoint: "D" 719.534 100 basechar 0
AnchorPoint: "VR" 598.621 0 basechar 0
AnchorPoint: "Holam" 192.621 0 basechar 0
AnchorPoint: "N" 588.621 0 basechar 0
AnchorPoint: "W" 688.621 0 basechar 0
AnchorPoint: "H" 598.621 0 basechar 0
LayerCount: 2
Fore
SplineSet
310 1049 m 2
 336 1049 342 1041 348 1013 c 2
 380 883 l 1
 386 866 372 861 368 860 c 9
 311 844 l 17
 375 568 580 357 707 327 c 1
 803 409 818 543 818 660 c 0
 818 714 815 764 815 804 c 0
 815 822 818 836 783 843 c 10
 755 848 l 1
 734 853 712 854 706 882 c 1
 670 1016 l 2
 663 1043 676 1049 704 1049 c 2
 902 1049 l 2
 928 1049 933 1041 940 1013 c 2
 972 883 l 2
 975 870 965 867 954 860 c 1
 939 850 921 840 921 840 c 1
 921 735 925 643 925 561 c 0
 925 256 869 91 338 -32 c 0
 295 -42 265 -48 246 -48 c 0
 231 -48 222 -44 219 -30 c 0
 218 -28 218 -25 218 -22 c 0
 218 -10 222 8 222 34 c 9
 222 105 l 17
 222 170 264 162 356 178 c 2
 592 216 l 1
 421 318 255 594 198 840 c 1
 150 856 l 2
 127 864 88 876 82 902 c 2
 32 1132 l 2
 22 1178 61 1180 74 1171 c 0
 84 1164 95 1140 97 1134 c 1
 113 1094 150 1049 176 1049 c 9
 310 1049 l 2
EndSplineSet
EndChar

StartChar: alef.wide
Encoding: 64289 64289 195
Width: 1987
VWidth: 1761
Flags: W
HStem: -17 224<1834.84 1991.14> 0 162<197.609 304.194> 852 185<1720.17 1812.74>
VStem: 270 132<380.626 638.876> 1625 84<550.244 837.515>
AnchorPoint: "R" 1158 0 basechar 0
AnchorPoint: "D" 1161.57 -451 basechar 0
AnchorPoint: "VR" 1089.28 3 basechar 0
AnchorPoint: "Holam" 293.444 0 basechar 0
AnchorPoint: "N" 1093.28 3 basechar 0
AnchorPoint: "W" 1089.28 3 basechar 0
AnchorPoint: "H" 1089.28 3 basechar 0
LayerCount: 2
Fore
SplineSet
1403 355 m 1x78
 1408 355 1413 355 1417 355 c 0
 1461 355 1481 364 1503 392 c 1
 1537 441 1606 573 1621 681 c 0
 1624 700 1625 716 1625 731 c 0
 1625 819 1584 833 1584 848 c 1
 1545 1004 l 2
 1538 1031 1552 1037 1580 1037 c 2
 1773 1037 l 2
 1799 1037 1810 1034 1810 1005 c 1
 1840 884 l 2
 1848 852 1832 852 1804 852 c 0
 1745 852 1709 809 1709 770 c 0
 1709 758 1717 677 1717 603 c 0
 1717 509 1662 357 1629 315 c 0
 1628 313 1625 312 1625 310 c 0
 1625 293 1681 269 1701 261 c 0
 1818 215 1885 207 1924 207 c 0
 1946 207 1959 209 1968 209 c 0
 1981 209 1983 203 1989 174 c 1
 2018 30 l 2
 2018 29 2018 28 2018 28 c 0
 2018 13 1991 -17 1969 -17 c 0
 1966 -17 1963 -18 1960 -17 c 1xb8
 1523 146 975 260 465 614 c 1
 446 629 437 640 429 640 c 0
 414 640 402 600 402 551 c 0
 402 530 406 531 411 509 c 0
 472 243 526 224 544 164 c 1
 578 34 l 2
 584 12 568 0 540 0 c 2
 221 0 l 2
 206 0 205 13 202 24 c 2
 182 100 l 2
 181 103 181 105 181 107 c 0
 181 141 245 157 258 162 c 2
 374 198 l 1
 318 297 270 404 270 519 c 0
 270 637 323 677 323 708 c 0
 323 725 310 734 291 750 c 10
 234 797 l 18
 227 803 212 830 208 845 c 2
 174 1044 l 2
 173 1047 174 1050 174 1052 c 0
 174 1072 187 1088 205 1088 c 0
 213 1088 221 1082 231 1076 c 1
 562 647 1243 363 1403 355 c 1x78
EndSplineSet
EndChar

StartChar: daled.wide
Encoding: 64290 64290 196
Width: 1676
VWidth: 2273
Flags: W
HStem: 861 188<9.241 1272.4 1424.59 1489.53>
VStem: -72 63<1067.93 1170.66>
AnchorPoint: "R" 950 0 basechar 0
AnchorPoint: "D" 800.621 0 basechar 0
AnchorPoint: "VR" 1370.57 1 basechar 0
AnchorPoint: "Holam" 20.6211 0 basechar 0
AnchorPoint: "H" 1370.57 1 basechar 0
AnchorPoint: "W" 1515.57 1 basechar 0
AnchorPoint: "N" 1531.57 1 basechar 0
LayerCount: 2
Fore
SplineSet
1450 1050 m 1
 1476 1050 1481 1041 1488 1013 c 2
 1518 894 l 1
 1526 862 1505 861 1477 861 c 1
 1421 861 1420 798 1420 775 c 1
 1420 722 1432 674 1442 631 c 0
 1477 476 1548 360 1585 201 c 0
 1589 185 1590 170 1590 155 c 0
 1590 101 1568 55 1547 15 c 1
 1537 -4 1536 -4 1517 -9 c 1
 1489 -18 l 1
 1468 -23 1465 -19 1461 0 c 1
 1413 210 1396 296 1283 786 c 1
 1271 835 1249 861 1177 861 c 1
 61 861 l 2
 36 861 -16 876 -22 902 c 2
 -72 1132 l 2
 -82 1178 -43 1180 -30 1171 c 0
 -20 1164 -11 1140 -9 1134 c 1
 7 1094 26 1049 46 1049 c 1
 1450 1050 l 1
EndSplineSet
EndChar

StartChar: he.wide
Encoding: 64291 64291 197
Width: 2053
VWidth: 2273
Flags: W
HStem: -18 21G<288.5 305> 860 191<146.241 1691.4 1843.01 1864.41>
VStem: 65 63<1069.93 1172.66> 259 154<24.2546 363.461>
AnchorPoint: "R" 1200 0 basechar 0
AnchorPoint: "D" 1117.62 -3 basechar 0
AnchorPoint: "VR" 1117.39 -2 basechar 0
AnchorPoint: "Holam" 220.621 0 basechar 0
AnchorPoint: "H" 1117.39 -2 basechar 0
AnchorPoint: "W" 1114.39 -2 basechar 0
AnchorPoint: "N" 1114.39 1 basechar 0
LayerCount: 2
Fore
SplineSet
1825 1049 m 1
 1851 1049 1856 1040 1863 1012 c 2
 1893 893 l 2
 1901 861 1876 860 1876 860 c 0
 1843 860 1839 794 1839 774 c 1
 1839 564 2009 276 2009 154 c 1
 2009 100 1987 54 1966 14 c 0
 1956 -5 1955 -5 1936 -10 c 1
 1908 -18 l 1
 1887 -23 1884 -19 1880 0 c 2
 1702 785 l 2
 1690 834 1668 860 1596 860 c 1
 198 860 l 1
 173 860 121 878 115 904 c 2
 65 1134 l 2
 55 1180 94 1182 107 1173 c 0
 117 1166 126 1142 128 1136 c 0
 144 1096 163 1051 183 1051 c 1
 1825 1049 l 1
253 648 m 0
 275 658 291 653 299 618 c 2
 321 520 l 2
 341 434 413 277 413 150 c 0
 413 88 395 37 341 0 c 0
 332 -6 314 -18 296 -18 c 0
 281 -18 259 -9 259 42 c 0
 259 416 194 496 194 580 c 0
 194 611 209 628 253 648 c 0
EndSplineSet
EndChar

StartChar: khaf.wide
Encoding: 64292 64292 198
Width: 1818
VWidth: 2273
Flags: W
HStem: 0 198<219.699 1714.93> 860 189<137.191 1444.02>
VStem: 51 63<1082.82 1170.66> 1717 144<204.214 362.949>
AnchorPoint: "R" 1116 0 basechar 0
AnchorPoint: "D" 963.588 0 basechar 0
AnchorPoint: "VR" 1033.93 0 basechar 0
AnchorPoint: "Holam" 183.588 0 basechar 0
AnchorPoint: "N" 1054.93 0 basechar 0
AnchorPoint: "W" 999.933 0 basechar 0
AnchorPoint: "H" 1033.93 0 basechar 0
LayerCount: 2
Fore
SplineSet
184 860 m 2
 159 860 107 876 101 902 c 2
 51 1132 l 2
 41 1178 81 1180 94 1171 c 0
 104 1164 112 1140 114 1134 c 1
 130 1094 169 1049 195 1049 c 9
 1375 1049 l 18
 1638 1049 1729 612 1856 253 c 1
 1859 239 1861 224 1861 209 c 0
 1861 108 1790 0 1713 0 c 10
 276 0 l 1
 253 0 231 -5 223 31 c 1
 187 165 l 2
 180 192 193 198 221 198 c 2
 1613 198 l 18
 1690 198 1717 216 1717 262 c 0
 1717 278 1713 297 1708 320 c 2
 1688 407 l 2
 1642 605 1563 860 1250 860 c 2
 184 860 l 2
EndSplineSet
EndChar

StartChar: lamed.wide
Encoding: 64293 64293 199
Width: 1860
VWidth: 2273
Flags: W
HStem: 864 189<104.25 1534.42> 1442 197<45.3881 137.395>
VStem: -58 194<1544.76 1638.99> -58 92<1156.23 1420.01> 1578 142<545.656 824.607>
AnchorPoint: "D" 909 0 basechar 0
AnchorPoint: "J1" 91 0 basechar 0
AnchorPoint: "VR" 1414.08 4 basechar 0
AnchorPoint: "Holam" 36.9131 100 basechar 0
AnchorPoint: "N" 1265.08 4 basechar 0
AnchorPoint: "W" 1328.08 4 basechar 0
AnchorPoint: "H" 1328.08 4 basechar 0
LayerCount: 2
Fore
SplineSet
1212 44 m 9xd8
 1187 186 l 17
 1187 187 1187 187 1187 188 c 0
 1187 213 1278 256 1314 276 c 1
 1515 397 1578 568 1578 696 c 0
 1578 715 1576 733 1572 750 c 0
 1556 818 1508 864 1433 864 c 10
 97 860 l 18
 19 860 9 889 -3 940 c 0
 -58 1176 -58 1348 -58 1586 c 0
 -58 1592 l 0
 -58 1634 -57 1639 -12 1639 c 1
 97 1639 l 1
 123 1639 129 1631 136 1603 c 2xe8
 168 1473 l 2
 176 1441 158 1442 128 1442 c 1
 124 1442 113 1442 100 1442 c 0
 79 1442 53 1439 45 1421 c 1
 37 1400 34 1377 34 1351 c 0
 34 1315 41 1274 50 1235 c 0
 60 1192 81 1141 102 1100 c 1
 126 1059 150 1049 180 1049 c 1
 1514 1053 l 1
 1626 1035 1688 964 1711 867 c 0
 1717 840 1720 811 1720 780 c 0
 1720 525 1525 151 1259 8 c 1
 1219 -14 1221 7 1212 44 c 9xd8
EndSplineSet
EndChar

StartChar: finalmem.wide
Encoding: 64294 64294 200
Width: 2009
VWidth: 2273
Flags: W
HStem: 0 198<419.628 1889.99> 860 189<284.007 1651.71>
VStem: 30 65<1081.2 1170.66> 200 84<615.278 838> 1890 157<80 270.417>
AnchorPoint: "D" 1161.62 0 basechar 0
AnchorPoint: "VR" 1123.64 0 basechar 0
AnchorPoint: "Holam" 195.621 0 basechar 0
AnchorPoint: "N" 1085.64 0 basechar 0
AnchorPoint: "W" 1121.64 0 basechar 0
AnchorPoint: "H" 1123.64 0 basechar 0
LayerCount: 2
Fore
SplineSet
1545 1047 m 1
 1784 1047 1825 901 1870 742 c 2
 2022 201 l 2
 2031 158 2047 115 2047 94 c 0
 2047 66 2012 0 1932 0 c 10
 396 0 l 18
 344 0 339 18 332 49 c 0
 316 117 200 496 200 759 c 1
 200 838 l 9
 162 850 l 2
 138 858 86 876 80 902 c 2
 30 1132 l 2
 20 1178 59 1180 72 1171 c 0
 82 1164 93 1140 95 1134 c 0
 111 1094 148 1049 174 1049 c 1
 1545 1047 l 1
284 830 m 0
 284 826 335 557 349 500 c 0
 410 236 421 198 487 198 c 10
 1815 196 l 18
 1873 196 1890 207 1890 237 c 0
 1890 251 1887 268 1882 289 c 2
 1877 312 l 1
 1847 441 1772 632 1766 648 c 1
 1696 837 1628 860 1392 860 c 1
 324 860 l 1
 294 860 284 850 284 830 c 0
EndSplineSet
EndChar

StartChar: resh.wide
Encoding: 64295 64295 201
Width: 1762
VWidth: 2273
Flags: W
HStem: 860 189<9.19104 1441.68>
VStem: -77 63<1082.82 1170.66>
AnchorPoint: "D" 939.621 0 basechar 0
AnchorPoint: "VR" 1640.08 -2 basechar 0
AnchorPoint: "Holam" 59.6211 0 basechar 0
AnchorPoint: "H" 1640.31 -3 basechar 0
AnchorPoint: "W" 1740.31 -3 basechar 0
AnchorPoint: "N" 1752.31 -3 basechar 0
LayerCount: 2
Fore
SplineSet
1749 -10 m 0
 1743 -17 1736 -23 1724 -29 c 1
 1718 -32 1712 -34 1708 -34 c 0
 1699 -34 1695 -23 1687 12 c 0
 1666 102 1552 538 1533 622 c 0
 1489 812 1477 859 1161 860 c 2
 56 860 l 2
 31 860 -21 876 -27 902 c 2
 -77 1132 l 2
 -87 1178 -48 1180 -35 1171 c 0
 -25 1164 -16 1140 -14 1134 c 1
 2 1094 41 1049 67 1049 c 1
 1307 1047 l 1
 1576 1047 1588 841 1650 665 c 1
 1756 320 l 1
 1759 304 1780 232 1783 220 c 0
 1787 201 1789 186 1789 172 c 0
 1789 144 1765 14 1749 -10 c 0
EndSplineSet
EndChar

StartChar: tav.wide
Encoding: 64296 64296 202
Width: 1979
VWidth: 2273
Flags: W
HStem: 0 158<185.707 358.59> 860 189<361.512 1651.95>
VStem: 143 63<1082.82 1170.66> 251 100<644.264 837.683> 359 154<90.5 324.5>
AnchorPoint: "R" 1185 0 basechar 0
AnchorPoint: "D" 1159.62 0 basechar 0
AnchorPoint: "VR" 1165.39 1 basechar 0
AnchorPoint: "Holam" 294.621 0 basechar 0
AnchorPoint: "H" 1165.85 -1 basechar 0
AnchorPoint: "W" 1152.85 -1 basechar 0
AnchorPoint: "N" 1125.85 -1 basechar 0
LayerCount: 2
Fore
SplineSet
2015 138 m 0
 2015 69 1970 -34 1940 -34 c 0
 1920 -34 1905 4 1890 71 c 0
 1869 160 1770 520 1746 625 c 0
 1703 810 1690 860 1374 860 c 2
 417 860 l 2
 369 860 351 806 351 750 c 0
 351 729 355 708 359 689 c 1
 492 249 l 1
 497 225 513 187 513 126 c 0
 513 55 486 0 396 0 c 10
 243 0 l 18
 188 0 181 10 181 44 c 0
 181 55 182 68 182 83 c 0
 182 142 206 144 279 158 c 1
 337 167 359 173 359 210 c 0
 359 226 355 247 348 277 c 0
 348 279 347 282 346 285 c 2
 258 645 l 2
 253 666 251 684 251 702 c 0
 251 777 285 811 285 839 c 0
 285 846 282 853 276 860 c 0
 276 861 199 876 193 902 c 2
 143 1132 l 2
 133 1178 172 1180 185 1171 c 0
 195 1164 204 1140 206 1134 c 0
 222 1094 261 1049 287 1049 c 1
 1523 1050 l 1
 1778 1050 1801 844 1863 668 c 9
 2008 182 l 17
 2014 170 2015 150 2015 138 c 0
EndSplineSet
EndChar

StartChar: hebrewplussign
Encoding: 64297 64297 203
Width: 952
VWidth: 2273
Flags: W
HStem: 443 179<-8 246 429 716>
LayerCount: 2
Fore
SplineSet
-8 443 m 1
 -50 622 l 1
 246 622 l 1
 179 913 l 1
 362 913 l 1
 429 622 l 1
 716 622 l 1
 758 443 l 1
 -8 443 l 1
EndSplineSet
EndChar

StartChar: aleflamed
Encoding: 64335 64335 241
Width: 1160
VWidth: 2273
Flags: W
HStem: 864 185<884.169 976.741> 1442 197<19.3881 111.395>
VStem: -84 194<1544.76 1638.99> -84 92<1149.39 1420.01> 797 92<548.035 815.158>
LayerCount: 2
Fore
SplineSet
674 600 m 1xd8
 702 576 736 546 747 546 c 0
 768 546 797 602 797 695 c 0
 797 717 795 742 791 768 c 0
 779 850 748 839 748 860 c 1
 709 1016 l 2
 702 1043 716 1049 744 1049 c 1
 937 1049 l 1
 963 1049 974 1046 974 1017 c 1
 1004 896 l 2
 1012 864 996 864 968 864 c 0
 909 864 873 821 873 782 c 0
 873 770 889 730 889 656 c 0
 889 562 863 487 863 456 c 0
 863 434 883 416 901 401 c 0
 1141 195 1146 279 1163 195 c 1
 1203 30 l 2
 1207 15 1168 -17 1147 0 c 0
 827 248 521 482 239 758 c 8
 218 778 204 787 182 805 c 17
 176 815 116 860 71 860 c 1
 20 870 -8 852 -29 940 c 0
 -83 1168 -84 1336 -84 1562 c 0
 -84 1570 -84 1578 -84 1586 c 0
 -84 1592 l 0
 -84 1634 -83 1639 -38 1639 c 1
 71 1639 l 1
 97 1639 103 1631 110 1603 c 2xe8
 142 1473 l 2
 150 1441 132 1442 102 1442 c 1
 98 1442 87 1442 74 1442 c 0
 53 1442 27 1439 19 1421 c 1
 11 1400 8 1377 8 1351 c 0
 8 1315 15 1274 24 1235 c 0
 34 1192 55 1141 76 1100 c 1
 100 1059 128 1042 164 1030 c 1
 332 976 499 745 674 600 c 1xd8
EndSplineSet
LCarets2: 2 0 0 
Ligature2: "'ccmp' Alef Lamed" alef uni0000 lamed
Ligature2: "'ccmp' Alef Lamed" alef zerojoin lamed
EndChar

StartChar: nunhapukha
Encoding: 1478 1478 243
Width: 655
VWidth: 2273
Flags: W
HStem: 0 198<254.113 561.765> 860 189<-8.125 9.8365 171.466 288.765>
VStem: -91 59<1084.8 1170.97>
LayerCount: 2
Fore
SplineSet
8 824 m 1
 -0 858 -40 860 -48 860 c 2
 -57 860 l 2
 -77 860 -98 873 -102 891 c 0
 -103 895 -102 898 -102 902 c 2
 -91 1132 l 2
 -89 1154 -71 1172 -55 1172 c 0
 -50 1172 -36 1168 -32 1153 c 0
 -23 1115 3 1067 27 1049 c 1
 257 1049 l 2
 283 1049 295 1042 294 1013 c 2
 289 892 l 1
 284 860 278 860 250 860 c 2
 197 860 l 2
 177 860 169 826 169 772 c 0
 169 650 210 428 242 290 c 2
 248 265 l 2
 261 210 269 198 373 198 c 10
 529 198 l 2
 549 198 562 194 566 178 c 0
 567 173 567 168 567 162 c 2
 562 32 l 1
 557 0 551 0 523 0 c 2
 253 0 l 2
 189 0 163 5 144 87 c 0
 137 115 130 152 124 200 c 1
 109 380 66 570 18 780 c 0
 14 795 11 809 8 824 c 1
EndSplineSet
EndChar

StartChar: qamatsqatan
Encoding: 1479 1479 244
Width: 0
VWidth: 1761
GlyphClass: 4
Flags: W
HStem: -279 109<-99.0781 23 109 201.949>
VStem: -101 306
AnchorPoint: "VR" -95 0 mark 0
AnchorPoint: "M2V" -282.077 0.333008 basemark 0
AnchorPoint: "W" -0.0595703 0.333008 mark 0
LayerCount: 2
Fore
SplineSet
109 -279 m 1
 176 -529 l 2
 178 -536 175 -539 168 -539 c 2
 82 -539 l 2
 77 -539 73 -536 71 -529 c 2
 23 -279 l 1
 -89 -279 l 2
 -98 -279 -102 -275 -101 -266 c 2
 -98 -185 l 2
 -97 -176 -93 -170 -85 -170 c 1
 190 -170 l 1
 200 -170 206 -176 205 -185 c 2
 202 -266 l 2
 201 -275 195 -279 186 -279 c 2
 109 -279 l 1
EndSplineSet
LCarets2: 1 0 
MultipleSubs2: "meteg-tenua-stage2" qamatsqatan meteg
Ligature2: "meteg-tenua-stage1" meteg qamatsqatan
EndChar

StartChar: uni0000
Encoding: 0 0 247
Width: 1372
VWidth: 0
Flags: W
HStem: 64 99<261 1017> 288 153<462.14 584.01> 1079 77<256.825 507.007> 1294 77<0 756>
VStem: 212 44<968 1030.38> 446 154<303.996 426.024> 568 112<760.954 1021.52>
LayerCount: 2
Fore
SplineSet
355 1156 m 0xfa
 518 1156 636 1092 671 940 c 0
 677 912 680 888 680 865 c 0
 680 762 616 713 530 694 c 1
 505 688 l 1
 526 522 l 1
 466 522 l 1
 392 728 l 1
 496 751 l 1
 548 761 568 797 568 850 c 0
 568 875 564 903 557 934 c 0
 527 1062 478 1079 371 1079 c 0
 322 1079 283 1067 256 1048 c 1
 256 968 l 1
 212 968 l 1
 175 1129 l 1
 226 1143 281 1156 355 1156 c 0xfa
506 441 m 0
 564 441 600 388 600 345 c 0
 600 314 582 288 541 288 c 0
 483 288 446 340 446 384 c 0xfc
 446 415 464 441 506 441 c 0
0 1294 m 1
 261 163 l 1
 1017 163 l 1
 756 1294 l 1
 0 1294 l 1
-91 1371 m 1
 829 1371 l 1
 1131 64 l 1
 212 64 l 1
 -91 1371 l 1
EndSplineSet
EndChar

StartChar: .notdef
Encoding: 65536 -1 249
Width: 1372
VWidth: 0
Flags: W
HStem: 64 99<261 1017> 288 153<462.14 584.01> 1079 77<256.825 507.007> 1294 77<0 756>
VStem: 212 44<968 1030.38> 446 154<303.996 426.024> 568 112<760.954 1021.52>
LayerCount: 2
Fore
SplineSet
355 1156 m 0xfa
 518 1156 636 1092 671 940 c 0
 677 912 680 888 680 865 c 0
 680 762 616 713 530 694 c 1
 505 688 l 1
 526 522 l 1
 466 522 l 1
 392 728 l 1
 496 751 l 1
 548 761 568 797 568 850 c 0
 568 875 564 903 557 934 c 0
 527 1062 478 1079 371 1079 c 0
 322 1079 283 1067 256 1048 c 1
 256 968 l 1
 212 968 l 1
 175 1129 l 1
 226 1143 281 1156 355 1156 c 0xfa
506 441 m 0
 564 441 600 388 600 345 c 0
 600 314 582 288 541 288 c 0
 483 288 446 340 446 384 c 0xfc
 446 415 464 441 506 441 c 0
0 1294 m 1
 261 163 l 1
 1017 163 l 1
 756 1294 l 1
 0 1294 l 1
-91 1371 m 1
 829 1371 l 1
 1131 64 l 1
 212 64 l 1
 -91 1371 l 1
EndSplineSet
EndChar

